<?xml version="1.0" encoding="UTF-8" standalone="no"?>
<!-- Created with Inkscape (http://www.inkscape.org/) -->

<svg
   xmlns:dc="http://purl.org/dc/elements/1.1/"
   xmlns:cc="http://creativecommons.org/ns#"
   xmlns:rdf="http://www.w3.org/1999/02/22-rdf-syntax-ns#"
   xmlns:svg="http://www.w3.org/2000/svg"
   xmlns="http://www.w3.org/2000/svg"
   xmlns:sodipodi="http://sodipodi.sourceforge.net/DTD/sodipodi-0.dtd"
   xmlns:inkscape="http://www.inkscape.org/namespaces/inkscape"
   width="744.09448819"
   height="1052.3622047"
   id="svg2"
   version="1.1"
   inkscape:version="0.48.2 r9819"
   sodipodi:docname="New document 1">
  <defs
     id="defs4" />
  <sodipodi:namedview
     id="base"
     pagecolor="#ffffff"
     bordercolor="#666666"
     borderopacity="1.0"
     inkscape:pageopacity="0.0"
     inkscape:pageshadow="2"
     inkscape:zoom="1.2445079"
     inkscape:cx="152.7414"
     inkscape:cy="618.40431"
     inkscape:document-units="px"
     inkscape:current-layer="layer1"
     showgrid="false"
     inkscape:window-width="2205"
     inkscape:window-height="1199"
     inkscape:window-x="323"
     inkscape:window-y="90"
     inkscape:window-maximized="0">
    <inkscape:grid
       type="xygrid"
       id="grid2987" />
  </sodipodi:namedview>
  <metadata
     id="metadata7">
    <rdf:RDF>
      <cc:Work
         rdf:about="">
        <dc:format>image/svg+xml</dc:format>
        <dc:type
           rdf:resource="http://purl.org/dc/dcmitype/StillImage" />
        <dc:title></dc:title>
      </cc:Work>
    </rdf:RDF>
  </metadata>
  <g
     inkscape:label="Layer 1"
     inkscape:groupmode="layer"
     id="layer1">
    <rect
       style="fill:#333333;fill-rule:evenodd;stroke:#000000;stroke-width:1px;stroke-linecap:butt;stroke-linejoin:miter;stroke-opacity:1;opacity:0"
       id="rect2985"
       width="597.14288"
       height="282.85715"
       x="82.85714"
       y="329.50504" />
    <rect
       style="opacity:0;fill:#333333"
       id="rect2989"
       width="480"
       height="230"
       x="130"
       y="212.36218" />
    <rect
       style="opacity:0;fill:#333333"
       id="rect2991"
       width="510"
       height="270"
       x="130"
       y="172.36218" />
    <rect
       style="opacity:0;fill:#333333"
       id="rect2993"
       width="81.818184"
       height="23.863636"
       x="186.36363"
       y="268.27127" />
    <rect
       style="fill:#333333"
       id="rect3767"
       width="593.18182"
       height="310.22726"
       x="68.181816"
       y="256.90762"
       ry="42.045456" />
    <rect
       style="fill:#80b3ff;stroke-width:0;stroke-miterlimit:4;stroke-dasharray:none;stroke:#fcff15;stroke-opacity:1"
       id="rect3767-1"
       width="285.37494"
       height="292.04544"
       x="73.392937"
       y="-556.6723"
       ry="39.581253"
       transform="scale(1,-1)" />
    <rect
       style="fill:#ff9955"
       id="rect3767-1-5"
       width="287.78552"
       height="292.04544"
       x="365.9473"
       y="-555.56061"
       ry="39.581253"
       transform="scale(1,-1)" />
    <g
       style="fill:#803300"
       id="g3873"
       transform="matrix(0.4693499,0,0,0.47001445,398.12505,286.41619)">
      <path
         id="path3865"
         d="m 69.075,339.05 c -37.85,37.2 -5.875,75.4 -56.175,132.025 -22.7,25.55 93.45,17.75 151,-38.825 24.4,-23.975 17.525,-58.95 -8.65,-84.7 -26.175,-25.725 -61.775,-32.475 -86.175,-8.5 z M 488.525,16.45 C 469.1,-2.625 254.05,169.7 190.025,232.625 158.25,263.85 147.65,280.6 137.9,293.125 c -4.225,5.45 1.375,7.125 3.875,8.425 12.575,6.4 21.375,12.35 32.775,23.55 11.4,11.175 17.475,19.825 23.975,32.2 1.3,2.475 3.025,7.975 8.55,3.8 12.75,-9.575 29.775,-20 61.525,-51.225 C 332.625,246.95 507.9,35.55 488.525,16.45 z"
         inkscape:connector-curvature="0"
         style="fill:#803300" />
    </g>
    <g
       style="fill:#003380"
       id="g3977"
       transform="matrix(0.36827705,0,0,0.36910306,104.19345,315.85098)">
      <path
         id="path3969"
         d="m 256,448 0,64 352,0 0,-64 -352,0 z m 0,-128 0,64 352,0 0,-64 -352,0 z m 0,-192 0,64 352,0 0,-64 -352,0 z m 0,-128 0,64 352,0 0,-64 -352,0 z M 0,320 0,512 192,512 192,320 0,320 z M 0,0 0,192 192,192 192,0 0,0 z"
         inkscape:connector-curvature="0"
         style="fill:#003380" />
    </g>
  </g>
</svg>
