<?xml version="1.0"?><svg width="744.09448819" height="1052.3622047" xmlns="http://www.w3.org/2000/svg">
 <title>queen crown</title>
 <defs>
  <clipPath id="clipPath37527" clipPathUnits="userSpaceOnUse">
   <path fill="none" stroke="#ececec" stroke-width="3.155635" d="m1555.891968,1355.892334c1.446045,13.312378 3.634399,27.198242 7.57312,40.336548c6.263794,20.893311 16.633301,40.478638 34.97876,49.341309c13.292358,6.421631 27.227295,-0.241211 38.58374,-8.412109c7.548828,-5.431152 14.086548,-11.872314 19.968506,-18.138794c-0.961548,11.985596 -1.63562,24.50293 -0.264526,36.664307c1.839722,16.31604 7.56958,32.67981 21.700195,41.44458c12.11084,7.512085 25.04187,8.093628 36.562866,4.466797c1.684692,-0.530151 3.254883,-1.337769 4.88147,-2.022583c-7.08313,9.987305 -12.61377,18.799683 -16.001587,25.620728c-2.461792,4.957031 -3.90918,8.790771 -5.006836,12.077759l-327.851074,-43.182495c-0.011963,-10.395874 -1.350708,-19.803223 -4.256226,-29.317627c-1.456177,-4.769409 -3.381226,-9.737061 -5.522095,-14.892334c3.625244,2.534912 7.191406,4.704346 10.737549,6.118164c10.315674,4.112549 19.907471,3.153442 29.228149,1.583862c7.995239,-1.346436 14.576416,-6.346558 19.484131,-12.44165c4.890747,-6.073486 8.465454,-13.363403 11.394409,-21.0448c3.944824,-10.345947 6.529297,-21.434082 8.431641,-31.603638c4.530273,7.72522 9.957153,15.825439 16.697754,22.791626c10.155884,10.495605 24.019531,18.860107 39.825317,15.168213c18.581177,-4.339844 32.195435,-20.370117 42.647827,-38.513062c6.557129,-11.381592 11.758179,-23.874023 16.206909,-36.0448z" id="path37529"/>
  </clipPath>
 </defs>
 <metadata id="metadata37552">image/svg+xml</metadata>
 <g>
  <title>Layer 1</title>
  <g id="layer1">
   <path fill="#000000" id="path37379" d="m368.846619,365.346375c0,0 -24.165405,30.554718 -10.0625,55.75c-8.362,-5.981995 -20.279694,-13.21579 -29.0625,-13.3125c-30.709198,-0.338715 -8.26709,42.781281 2.375,27.656281c-7.572693,-11.811279 15.596191,-16.714783 21.843811,-4.6875c3.529083,6.793915 -20.958221,25.904114 -8.218811,24.3125c12.7388,-1.591675 14.25,-10.156281 14.25,-10.156281l4.406311,10.625c-5.816803,32.735199 -18.756317,77.650818 -46.5,87.25c-22.363312,7.73761 -45.029297,-17.182434 -57.218811,-33.875l0.875,-12.031219c0,0 4.002594,7.598511 16.5625,4.906219c12.559204,-2.692291 -16.686005,-12.688904 -15.5,-20.281219c2.099396,-13.440674 25.641205,-16.641876 22.218811,-2.968781c14.865784,10.805695 22.422791,-37.254089 -6.531311,-26.8125c-8.633087,3.113708 -17.591187,14.235809 -23.593704,22.781281c5.333511,-28.251678 -26.843796,-50.218781 -26.843796,-50.218781c0,0 -13.179092,37.229187 8.593796,56.343781c-9.867188,-2.995697 -23.46669,-6.273773 -32.093796,-3.375c-29.167999,9.800629 5.723206,43.320709 11,25.5c-10.910095,-8.681488 9.337799,-20.978882 19.0625,-11.656281c5.492905,5.266205 -11.644394,31.423523 -0.093994,25.718811c11.55069,-5.704712 10.375,-14.281311 10.375,-14.281311l7.1875,8.281281c-0.181503,22.980133 -3.814301,61.934296 -24.031204,67.625031c-17.203903,4.842468 -28.356995,5.922302 -56.781296,-17.125l-1.781204,-5.9375c0,0 7.157303,4.641174 17.031204,-3.718811c9.874588,-8.360107 -20.541306,-3.283813 -22.968704,-10.5625c-4.296707,-12.888977 15.047104,-26.595703 18.281204,-12.875c18.093994,2.479004 2.605103,-43.767395 -18.218704,-20.75c-6.159103,6.807922 -8.871094,20.788696 -10.281296,31.1875c-8.0513,-28.122711 -49.406303,-30.718719 -49.406303,-30.718719c23.639198,22.995819 33.8386,26.43692 62.843803,58.750031c20.998489,30.289612 28.968002,41.932983 30.468689,66.718689l343.593811,0.593811c0,0 -1.892883,-21.957825 38.093689,-75.031311c23.982239,-25.599121 34.362305,-30.234009 56.0625,-51.343719c0,0 -41.35498,2.596008 -49.406189,30.718719c-1.410217,-10.398804 -4.122192,-24.379578 -10.281311,-31.1875c-20.823792,-23.017303 -36.312683,23.228882 -18.218689,20.75c3.233398,-13.720703 22.578613,-0.013977 18.281189,12.875c-2.427368,7.278687 -32.84259,2.202393 -22.968689,10.5625c9.874512,8.359985 17.0625,3.718811 17.0625,3.718811l-2.4375,8.031189c-17.929321,15.81842 -34.588684,27.868286 -55.8125,18.968811c-22.911682,-9.607239 -24.9133,-43.403931 -25.968781,-71.187531l7.281281,-8.343781c0,0 -1.17569,8.576599 10.375,14.281311c11.55072,5.704712 -5.58728,-20.452606 -0.093994,-25.718811c9.72467,-9.322601 29.972595,2.974792 19.0625,11.656281c5.276794,17.820709 40.168701,-15.699371 11,-25.5c-8.627075,-2.898773 -22.257904,0.379303 -32.125,3.375c21.773621,-19.114594 8.625,-56.343781 8.625,-56.343781c0,0 -32.176605,21.967102 -26.843811,50.218781c-6.002502,-8.545471 -14.960602,-19.667572 -23.593781,-22.781281c-28.954102,-10.441589 -21.396423,37.618195 -6.531219,26.8125c-3.422485,-13.673096 20.087402,-10.471893 22.1875,2.968781c1.186005,7.592316 -28.028687,17.588928 -15.468781,20.281219c12.559906,2.692291 16.5625,-4.906219 16.5625,-4.906219l0.75,10.625c-11.532013,16.353302 -33.251617,42.426788 -51.125,36.937531c-30.846497,-9.473999 -45.132111,-56.02121 -51.5,-89.406311l4.093781,-9.968719c0,0 1.510498,8.564606 14.25,10.156219c12.7388,1.591583 -11.747894,-17.518616 -8.218781,-24.3125c6.247589,-12.027222 29.416382,-7.155029 21.843781,4.656281c10.64212,15.125092 33.084198,-27.963684 2.375,-27.625c-8.991302,0.098999 -21.241577,7.692413 -29.625,13.75c14.063904,-24.986084 -9.468781,-56.343781 -9.468781,-56.343781l0.00058,0z"/>
   <g fill="#ffffff" id="g37381" transform="matrix(0.99169167,-0.12863757,0.12863757,0.99169167,-1348.5325,-677.76127)" clip-path="url(#clipPath37527)">
    <path fill="#000000" id="path37383" d="m1572.271484,1626.130981c-0.590942,-0.90625 -1.097046,-3.439697 -1.124878,-5.630249c-0.057983,-4.572998 -1.66748,-6.354492 -2.844727,-3.149292c-0.910889,2.480469 -1.516602,2.232422 -2.801758,-1.146362c-1.415405,-3.722046 -0.633789,-7.691162 1.936035,-9.831909c1.977173,-1.646729 1.981567,-1.812012 0.088013,-3.242554l-1.994629,-1.507446l6.611694,-2.558472c10.458374,-4.046875 12.840454,-3.344971 18.059692,5.321777c1.824463,3.029297 3.687378,5.730347 4.139771,6.002075c3.317261,1.99231 -3.961182,-10.714722 -9.144531,-15.964233c-7.736938,-7.836304 -15.81311,-11.072632 -23.096191,-9.255249c-7.182983,1.792358 -10.614136,7.235474 -7.988159,12.672852c1.064575,2.204102 1.313477,2.353027 3.773804,2.256104c1.942871,-0.075928 2.886841,-0.660034 3.596558,-2.224854c1.298462,-2.862183 -1.490479,-4.807983 -2.983643,-2.081787c-0.91687,1.674072 -1.006226,1.667603 -1.165527,-0.08606c-0.395264,-4.353882 6.737427,-3.916504 7.406494,0.454346c0.438599,2.865479 -2.396484,6.307617 -5.654785,6.865234c-6.23999,1.068237 -12.286377,-5.515869 -11.415161,-12.43042c0.634888,-5.039551 -0.403931,-8.223267 -2.658447,-8.145996c-1.797974,0.062012 -2.560425,1.036743 -2.98584,3.820068c-0.222412,1.454102 -0.422485,1.40686 -1.882202,-0.443359c-2.273438,-2.882813 -3.080444,-6.243774 -2.560181,-10.661865c0.450073,-3.821289 1.021484,-4.613159 7.071533,-9.795898c0.95105,-0.814697 0.541138,-1.222656 -2.856445,-2.843384c-2.181641,-1.040527 -3.86792,-2.056641 -3.747314,-2.257446c0.120728,-0.201294 2.510986,-0.982178 5.311279,-1.735229c2.800293,-0.75293 7.245361,-2.31665 9.87793,-3.475098c6.835693,-3.007446 11.990356,-2.607178 19.789063,1.536743c5.924194,3.147705 6.398193,3.579468 9.116333,8.305054c1.576904,2.741699 3.889648,6.669556 5.139038,8.72876l2.271973,3.743896l-4.432617,-2.655029c-7.126709,-4.272095 -14.909302,-3.692627 -15.147827,1.125732c-0.171997,3.477295 2.726685,5.030762 10.318604,5.529785c6.307495,0.414429 7.495239,0.765869 10.52832,3.113647c1.991943,1.54187 3.595093,2.352905 3.841187,1.943115c0.921875,-1.53479 -5.438477,-24.348633 -8.72998,-31.313477c-7.144653,-15.118408 -17.125244,-27.112061 -29.588623,-35.556152c-6.345215,-4.299072 -7.989624,-5.112183 -10.047607,-4.967529c-2.359131,0.165649 -2.173706,0.348389 4.498657,4.428955c3.936035,2.407227 7.822021,5.362427 8.945435,6.802856c1.172119,1.50293 1.412964,2.234009 0.587402,1.783203c-2.660645,-1.452515 -7.89563,-1.390991 -16.091919,0.189209c-4.526733,0.872803 -9.266357,1.430176 -10.532471,1.238647c-1.266113,-0.191406 -5.599609,-2.008179 -9.629883,-4.036865c-4.030273,-2.028564 -8.154419,-3.816895 -9.164917,-3.974365c-1.725464,-0.269043 -1.713257,-0.328979 0.203369,-0.988892c1.122559,-0.386475 4.729614,-2.355835 8.015747,-4.376343c5.248169,-3.226685 6.533081,-3.616089 10.559204,-3.201172c2.894897,0.29834 4.884277,0 5.398682,-0.81543c0.933716,-1.476074 -0.117432,-1.942505 -9.484619,-4.209839c-8.582275,-2.079102 -16.555664,-2.236694 -23.857666,-0.477661c-8.158813,1.966064 -13.412231,5.348389 -18.149536,11.685791l-3.635742,4.863525l3.462524,-5.454468c4.42627,-6.972534 9.074097,-10.117554 18.215454,-12.325439c7.895264,-1.90686 21.547485,-1.229858 29.184082,1.447144c5.480957,1.921387 7.671753,1.129272 2.560669,-0.925781c-5.886597,-2.366943 -18.531616,-4.315063 -26.040894,-4.012207c-9.023682,0.364136 -18.408569,2.903442 -24.217651,6.553101c-14.916992,9.371216 -23.019409,29.152466 -16.991455,41.483276c2.341553,4.789795 7.007813,7.769409 10.565552,6.74646c2.927368,-0.841431 5.087891,-4.025024 4.454468,-6.563599c-0.457275,-1.832397 -2.772949,-2.861084 -3.54541,-1.574829c-0.232178,0.386597 0.032959,0.697021 0.59021,0.689941c0.556519,-0.01001 0.70105,0.505005 0.320801,1.138062c-0.886719,1.476563 -3.028687,0.226929 -2.710083,-1.581055c0.597168,-3.387817 6.436646,-2.282104 6.988403,1.32312c0.459839,3.003662 -2.71106,7.354736 -5.747559,7.887207c-4.62085,0.810547 -7.924561,-1.037231 -11.14856,-6.234009c-4.543457,-7.324097 -4.435181,-15.191528 0.351685,-25.56543l2.100342,-4.551758l-2.400757,0.478638c-3.880371,0.773804 -6.41748,0.326416 -9.854614,-1.737793c-4.113037,-2.470459 -5.267212,-5.872192 -3.174438,-9.356689c1.785034,-2.972412 3.997681,-3.464722 6.597046,-1.468018c1.639038,1.258911 1.730225,1.819702 0.601563,3.698608c-1.031372,1.717407 -1.65918,2.01709 -2.796387,1.333984c-1.732422,-1.040405 -0.974243,-3.96228 1.040771,-4.010742c1.102661,-0.026978 1.149414,-0.171021 0.237061,-0.731445c-2.990234,-1.836426 -6.32251,1.701416 -5.173096,5.492432c0.86853,2.864868 5.490601,5.660645 9.122925,5.518188c3.845215,-0.150879 6.583008,-1.771484 11.798462,-6.983154c8.590454,-8.584717 17.197998,-12.508423 29.494751,-13.444458c10.28479,-0.783081 26.337402,1.161255 30.568726,3.702515c1.772949,1.064941 1.598633,1.324585 3.341064,-4.979004c2.463745,-8.914185 8.401855,-12.675781 19.652832,-12.449707c6.562744,0.132202 6.947998,0.506104 2.295166,2.230225c-5.149292,1.908447 -8.744507,4.657959 -12.452637,9.523926c-3.435669,4.508057 -2.45166,5.011963 2.000244,1.024292c4.058472,-3.635254 10.710693,-6.677246 17.121704,-7.82959c3.16394,-0.568604 5.924805,-0.93103 6.134888,-0.80542c0.632935,0.377808 -8.995728,14.907593 -11.526001,17.392456c-1.293091,1.27002 -3.784424,2.800903 -5.536255,3.401855l-3.185059,1.092407l2.224731,1.805054c1.223633,0.992798 4.658081,3.774414 7.632202,6.181519c7.693848,6.226929 18.073486,18.303833 22.497437,26.17627c2.081543,3.70459 3.874268,6.789307 3.983765,6.854858c0.109375,0.06604 0.387573,-3.508057 0.61792,-7.94165c1.168213,-22.462524 12.214966,-34.228882 30.341187,-32.316895c2.670288,0.281616 4.462769,0.272095 3.983276,-0.021973c-0.479736,-0.292847 -5.265991,-0.912354 -10.636841,-1.375122c-12.408447,-1.07019 -16.846069,-3.355225 -22.174438,-11.418823c-1.881226,-2.846924 -4.327393,-6.300781 -5.435791,-7.674805l-2.015015,-2.498779l6.656616,0.624146c6.276367,0.588379 7.108887,0.895874 14.561646,5.371582l7.904785,4.747559l-1.890259,-3.054077c-2.638306,-4.262207 -10.728882,-9.761475 -15.488159,-10.527222l-3.659546,-0.589233l4.539673,-0.868164c8.741333,-1.671875 15.367432,-0.173462 19.863647,4.49231c1.948242,2.021484 3.191284,4.897705 4.70459,10.885986c1.131104,4.476318 2.655273,8.810791 3.386719,9.632324c0.731689,0.821655 1.343994,1.950684 1.360962,2.509033c0.018921,0.626099 3.12854,1.698975 8.113403,2.799316c7.149292,1.578125 9.058472,1.585449 16.529907,0.062988c7.838745,-1.597534 8.48291,-1.893799 8.946289,-4.117798c1.067871,-5.125 -2.903076,-11.270508 -6.187378,-9.575806c-2.203125,1.136841 -1.530518,-0.455444 0.963135,-2.280396c2.205078,-1.613525 2.756958,-1.608887 5.512939,0.046997c2.498169,1.500488 3.246826,2.578979 4.064819,5.856689c0.551392,2.209595 0.683228,4.54895 0.293091,5.198608c-0.842163,1.402344 -0.073975,2.026855 1.889771,1.536743c1.026733,-0.256226 1.27771,-0.120605 0.910278,0.491333c-0.310181,0.516602 1.412476,1.060303 4.433472,1.39917c13.674927,1.533813 22.522705,6.521118 28.7052,16.180298c6.591064,10.297607 8.008301,18.450195 4.5448,26.144653c-3.05835,6.794067 -10.272461,9.622192 -13.938477,5.464233c-1.9646,-2.228027 -1.813721,-6.052979 0.287964,-7.308716c2.276733,-1.360229 4.942749,0.193115 3.747314,2.183228c-0.487549,0.812134 -1.218994,1.2771 -1.624756,1.033203c-0.406128,-0.243896 -0.538818,-0.775513 -0.295044,-1.181763c0.244019,-0.405762 0.088989,-0.951416 -0.345947,-1.212402c-1.470947,-0.883301 -2.29895,3.081665 -1.05127,5.032593c1.687012,2.638184 4.857544,2.914185 8.170898,0.710449c3.266479,-2.172363 4.071045,-3.530884 5.205322,-8.788696c1.195313,-5.541382 -1.100464,-15.098633 -5.108032,-21.263672c-2.491577,-3.833008 -4.302002,-5.56311 -9.343262,-8.928589c-6.699219,-4.471924 -11.330811,-5.998657 -20.285034,-6.685913c-4.033081,-0.309692 -4.727783,-0.072998 -5.997681,2.041626c-0.790039,1.315552 -2.454956,3.359131 -3.699707,4.541626c-2.134766,2.027588 -2.146484,2.105835 -0.204834,1.377197c1.951538,-0.732178 1.946045,-0.635254 -0.108276,1.858887c-2.410889,2.927734 -8.093628,4.893677 -12.321289,4.262695c-1.419189,-0.211548 -4.609863,-1.762329 -7.090454,-3.445801c-5.336182,-3.62146 -7.550903,-3.488281 -7.396729,0.444702c0.052979,1.349243 -0.665161,3.333862 -1.68457,4.655151l-1.776611,2.303223l4.080933,-0.352051c2.244629,-0.193604 7.916382,0.547241 12.603882,1.64624c4.907959,1.151245 10.233765,1.768677 12.556274,1.456299c2.218628,-0.297974 4.219238,-0.43042 4.446167,-0.294189c1.024658,0.615234 -2.770142,5.197388 -5.479614,6.616455c-1.652344,0.865356 -2.92688,1.884033 -2.832153,2.263794c0.095093,0.379639 2.987305,2.263184 6.427979,4.185669c5.886108,3.289063 6.330811,3.707397 7.522705,7.076538c0.696777,1.969482 1.399902,4.341553 1.562378,5.27124c0.557251,3.188965 -0.542725,11.23291 -1.831665,13.39563l-1.288818,2.163574l-0.748047,-2.517944c-1.202393,-4.047974 -3.039307,-5.549683 -5.466187,-4.468872c-2.726563,1.213989 -2.949097,3.903564 -0.942017,11.379272c2.421143,9.017334 0.905273,16.76416 -4.128662,21.10144c-7.809692,6.728394 -22.598389,-4.408447 -15.269287,-11.499146c0.936035,-0.90564 2.840942,-1.61377 4.233032,-1.573486c2.247681,0.064941 2.662476,0.345215 3.702271,2.497803c1.361572,2.819214 0.762817,4.792603 -0.627197,2.067505c-0.669312,-1.312012 -1.398193,-1.801636 -2.641602,-1.774292c-2.613892,0.057007 -3.318848,1.104248 -2.622559,3.89502c0.752563,3.015625 3.886963,4.392456 7.333008,3.221191c7.432739,-2.526855 5.121826,-15.117188 -3.403931,-18.545166c-6.645508,-2.671997 -14.547729,-1.717773 -21.303955,2.572632c-8.589966,5.45459 -17.728027,18.392456 -21.203857,30.020874c-2.358887,7.891357 -2.650269,11.250366 -1.579834,18.206909c0.840332,5.462402 -0.191528,6.96106 -2.891602,4.199585c-0.820801,-0.8396 -1.40918,-0.813843 -1.948975,0.085083c-0.580688,0.966553 -1.133545,0.05896 -2.218628,-3.641357c-2.242676,-7.648804 -4.055054,-10.105469 -10.212402,-13.844727c-5.177002,-3.143433 -5.541016,-3.230957 -8.999268,-2.158813c-1.982178,0.613892 -4.085327,1.917603 -4.673706,2.897339c-1.267212,2.109741 -0.684082,5.1698 1.20166,6.302246c1.409424,0.84668 3.664307,-0.341553 3.644287,-1.919922c-0.019043,-1.476563 -1.198608,-1.777588 -2.443726,-0.623901c-0.692871,0.641968 -0.669312,0.387695 0.059082,-0.639282c1.524414,-2.149292 3.067871,-1.840088 3.712769,0.744019c0.537231,2.152954 -1.766724,5.224609 -3.960938,5.281128c-1.617432,0.041016 -3.87207,-1.469238 -5.175171,-3.467651l0.000488,-0.001343zm17.321655,-11.566162c1.816284,-0.011963 4.124878,0.471924 5.129883,1.075806c1.005371,0.60376 1.987427,0.831909 2.182495,0.507446c0.880737,-1.466553 -0.644653,-3.601685 -4.022949,-5.630493c-5.028564,-3.020142 -9.458984,-2.120361 -8.499146,1.726196c0.486572,1.949097 1.379395,2.347046 5.209717,2.321533l0,-0.000488zm11.448486,-21.498169c3.159424,-6.732422 6.498413,-9.234619 15.777344,-11.822876c8.94812,-2.495972 11.871094,-4.621704 12.246338,-8.906006c0.317261,-3.622681 -2.30542,-6.455444 -6.335571,-6.843018c-4.050903,-0.389526 -6.959106,1.052612 -13.693604,6.790894l-5.448608,4.643066l1.411865,-3.50293c0.776489,-1.926392 2.336304,-6.563843 3.466187,-10.305298c1.640747,-5.43335 3.014771,-8.225464 6.826172,-13.873657c4.165894,-6.17334 5.458984,-7.506592 10.180542,-10.496216l5.408447,-3.424805l-2.491821,-1.111938c-2.294922,-1.024048 -2.815552,-0.817993 -6.586426,2.609619c-3.159912,2.871948 -5.390137,5.92395 -9.770752,13.371216c-4.863525,8.268311 -6.095825,11.097534 -8.60791,19.765015c-3.521484,12.148804 -5.888306,26.274902 -4.538208,27.085815c0.124023,0.073975 1.094116,-1.716187 2.156006,-3.978882zm-2.682129,-9.646973c0.431152,-2.641602 0.856934,-5.262817 0.946533,-5.824951c0.088989,-0.562134 -0.420898,-1.870117 -1.133789,-2.906738c-0.713013,-1.036743 -2.273926,-4.605835 -3.468628,-7.931274c-5.252563,-14.618774 -13.264404,-28.179688 -22.491577,-38.069214c-5.172852,-5.543823 -16.648804,-14.500977 -18.943848,-14.785767c-1.252808,-0.155029 0.231567,1.234497 4.868652,4.558594c18.719482,13.419312 30.011597,31.018921 36.059937,56.202393c1.736084,7.228394 3.206421,13.236328 3.267578,13.351196c0.061035,0.114502 0.460571,-1.953491 0.895142,-4.594238zm3.432495,-15.740723c3.674438,-12.276245 11.825073,-25.397339 21.189087,-34.111084c1.8396,-1.711792 3.456299,-3.745239 3.592529,-4.518433c0.14563,-0.826172 1.081421,-1.466797 2.268188,-1.552734c1.111206,-0.081055 2.705444,-0.752075 3.542725,-1.492432c1.356079,-1.19873 1.271118,-1.496948 -0.778687,-2.727661c-2.989136,-1.795288 -6.963257,-2.010986 -11.073853,-0.601074c-2.974731,1.020386 -3.287842,1.34729 -3.229858,3.369873c0.120117,4.182617 -2.110352,9.741211 -8.474731,21.120361c-6.487793,11.599854 -9.969971,20.366455 -9.801025,24.674927c0.052002,1.329224 0.26709,2.36792 0.477905,2.308472c0.210938,-0.059937 1.240356,-2.971069 2.28772,-6.470215zm4.982544,-40.046997c4.615479,-2.888428 7.515137,-5.944336 7.980347,-8.409668c0.393433,-2.084106 0.439819,-2.088867 1.040649,-0.106445c0.845093,2.787476 1.200439,2.903687 4.947388,1.618286c4.396484,-1.507813 8.08374,-1.135864 11.98999,1.210205c2.234375,1.341919 3.627319,1.69812 4.369873,1.117065c1.474854,-1.152832 -3.673096,-4.25 -9.604492,-5.778809c-9.638794,-2.483643 -18.970581,0.9552 -23.653198,8.716187c-2.436768,4.037476 -1.630615,4.48645 2.929932,1.632202l-0.000488,0.000977zm25.383545,5.44751c2.301147,-0.574341 3.010254,-1.693604 2.760254,-4.356934c-0.180786,-1.925781 -0.281006,-1.998901 -1.470825,-1.075195c-0.702148,0.545166 -1.393799,1.656006 -1.537109,2.468872c-0.143677,0.812622 -0.913086,1.706421 -1.710571,1.985962c-2.062256,0.723145 -0.386475,1.560303 1.958252,0.977295zm-112.748047,50.818237c-0.254761,-1.02124 -0.118408,-2.408447 0.303467,-3.08252c0.69751,-1.114746 0.764526,-1.068115 0.743286,0.517944c-0.051025,3.763062 6.238403,4.53186 8.347412,1.020386c1.293945,-2.154663 -0.971436,-8.491821 -5.390503,-15.07959c-2.075073,-3.092896 -4.12085,-6.656128 -4.546265,-7.918091c-1.999878,-5.931519 1.167969,-13.587402 7.194946,-17.388062c7.831421,-4.938843 19.235596,-7.171631 25.47168,-4.986938l2.489868,0.872192l-2.731567,-0.049927c-3.667725,-0.067017 -9.884888,3.982422 -15.47644,10.080322c-4.96167,5.4104 -9.508545,8.491333 -12.612305,8.545166c-1.777222,0.031006 -1.824097,-0.183838 -0.519043,-2.377563c1.851563,-3.112305 2.716064,-6.162476 1.887451,-6.65979c-0.358521,-0.215698 -1.549316,1.102173 -2.645996,2.928101c-1.655762,2.75708 -1.847168,4.067627 -1.128296,7.729858c0.933716,4.75647 4.460327,9.331299 8.317017,10.789429c5.447144,2.059448 8.444092,8.999023 5.778198,13.380005c-0.716309,1.178833 -0.902222,1.177124 -0.929565,-0.009888c-0.025024,-1.051636 -0.67041,-0.571289 -2.241821,1.667236c-1.331421,1.896973 -2.567627,2.928101 -3.115723,2.598877c-0.499634,-0.300049 -1.880981,-0.112671 -3.06958,0.416626c-2.515381,1.120117 -5.45813,-0.319946 -6.126343,-2.997803l0.000122,0.004028zm-20.643311,-12.997437c-0.636108,-1.010742 -0.942871,-2.204956 -0.681519,-2.654175c0.261719,-0.448975 -0.15918,-0.519653 -0.934204,-0.156616c-1.185181,0.555176 -1.495361,0.12915 -1.947998,-2.676758c-0.73938,-4.580688 -0.326416,-10.198608 0.89856,-12.227905c0.561768,-0.927734 2.635498,-2.525391 4.61145,-3.548828c4.188477,-2.169556 5.161011,-3.235718 2.593018,-2.842773c-1.599731,0.244995 -1.659912,0.132935 -0.498901,-0.929932c0.725952,-0.664551 3.134644,-3.011353 5.352417,-5.214966c5.156128,-5.123169 7.255493,-5.990479 14.679199,-6.06604c3.335449,-0.032959 7.918335,-0.213257 10.18457,-0.398804c2.266113,-0.185425 4.479614,-0.121338 4.918823,0.142822c0.439453,0.264038 -0.920044,0.576172 -3.021118,0.694092c-5.184692,0.290649 -14.941406,3.896973 -20.191895,7.463745c-5.929199,4.02771 -12.334473,13.526123 -12.535522,18.588989c-0.209595,5.278687 2.099854,9.57373 6.151733,11.440674c3.772095,1.738037 3.791016,2.754517 0.053955,2.901123c-3.262939,0.127808 -8.152466,-2.163818 -9.632446,-4.514404l-0.000122,-0.000244zm-4.520386,-40.249756c0.446899,-4.647217 1.613525,-6.225708 5.14917,-6.966553c3.325928,-0.696899 5.018921,-0.222534 3.485229,0.976563c-1.329956,1.039917 -1.201782,3.371338 0.184204,3.35376c0.619385,-0.01001 1.807617,-1.149658 2.640991,-2.537476c1.806274,-3.007324 4.472778,-3.37439 9.581543,-1.318726c4.121582,1.658569 4.04187,2.458618 -0.184082,1.841064c-5.869385,-0.857666 -11.988892,3.365601 -10.603271,7.317383c0.612915,1.748535 3.021118,2.517578 3.803467,1.214722c0.277832,-0.46228 -0.108154,-0.948486 -0.857666,-1.080688c-0.74939,-0.131958 -1.169189,-0.56189 -0.933105,-0.955078c0.670532,-1.116455 3.251221,0.811523 2.999268,2.240845c-0.294434,1.668091 -3.800659,2.332031 -5.841797,1.106079c-1.729858,-1.03894 -2.87085,-0.175049 -1.697021,1.284546c0.395386,0.491699 -0.398438,0.570679 -1.763794,0.175781c-1.529541,-0.442749 -2.810425,-1.360107 -3.335938,-2.390381c-0.528809,-1.036743 -1.023071,-1.389526 -1.300415,-0.927734c-0.952148,1.585693 -1.635254,-0.130493 -1.327271,-3.334106l0.000488,0zm-4.37915,-10.135376c2.812134,-4.349609 4.459961,-6.027954 8.278198,-8.430054c7.879639,-4.956787 20.673218,-6.500244 28.377808,-3.422974l2.669556,1.06604l-4.213623,2.445557c-2.317627,1.344971 -6.912598,3.276733 -10.210693,4.29248l-5.99707,1.847046l1.993164,-2.318604c1.851807,-2.153931 1.854492,-2.26355 0.038086,-1.542969c-1.075317,0.426636 -2.189331,1.165771 -2.475586,1.642456c-0.915771,1.52478 -5.868896,2.94812 -7.289795,2.094727c-1.740356,-1.045044 -6.079712,0.833496 -10.915405,4.725708l-3.765991,3.031372l3.511353,-5.430786zm46.006836,30.901489c1.475098,-1.186035 4.260376,-3.920532 6.189819,-6.076782c2.961548,-3.30957 4.306396,-4.104004 8.633667,-5.100098c6.481323,-1.492188 10.966309,-0.898926 16.327759,2.159668c4.670166,2.664307 5.289307,2.26709 2.148682,-1.378052c-2.746094,-3.187378 -7.78064,-4.876709 -19.248535,-6.45874c-4.902588,-0.678345 -8.99231,-1.54248 -9.087891,-1.924683c-0.095093,-0.382446 0.185425,-0.479492 0.625,-0.21582c0.439087,0.263916 3.031616,-0.456177 5.76123,-1.599487c8.848755,-3.707031 17.026367,-1.329468 24.349731,7.07959c3.658447,4.200806 12.407471,18.068481 13.894897,22.023682l0.966797,2.571533l-1.870728,-1.90271c-1.028931,-1.046631 -5.045044,-3.767944 -8.924561,-6.047607c-11.223511,-6.594727 -18.625,-7.253662 -29.719238,-2.645386c-4.627808,1.922119 -10.668213,2.8927 -12.232422,1.965088c-0.272705,-0.161377 0.710815,-1.264526 2.185791,-2.450317l0,0.000122zm-55.217896,-57.325195l-3.087891,-3.559204l5.680664,-1.861816c6.471558,-2.121094 9.032227,-1.263672 12.011475,4.021973l1.702026,3.019775l-1.994263,-1.697144c-1.096802,-0.933472 -3.267212,-1.835449 -4.823242,-2.004517c-2.789307,-0.303345 -2.767456,-0.269043 1.557617,2.424316c6.217285,3.871216 6.50708,5.052368 1.296631,5.280518c-5.417847,0.237183 -8.461304,-1.14978 -12.343018,-5.623901zm15.290161,-3.117432c-1.768921,-1.511597 -3.518188,-3.744629 -3.887451,-4.962402c-0.56665,-1.868774 -1.378296,-10.782227 -1.034058,-11.355469c0.061035,-0.101563 0.876465,0.234009 1.8125,0.745605c0.935913,0.511353 3.33728,1.593506 5.336548,2.404053c3.013184,1.222046 3.810913,1.939453 4.664063,4.193115c0.565918,1.495483 0.78479,3.89209 0.48584,5.326172l-0.542969,2.607056l-1.55603,-3.359497c-0.855835,-1.8479 -2.091675,-3.67981 -2.746582,-4.070923c-0.706909,-0.422485 -0.599121,0.417725 0.265381,2.068848c1.871338,3.573853 2.581421,10.960083 0.92041,9.570923c-0.276001,-0.230591 -1.948853,-1.656006 -3.717529,-3.167358l-0.000122,-0.000122zm13.713623,6.176025c0.946411,-1.57605 6.935303,-4.702881 9.668701,-5.048218c1.591919,-0.20105 2.478271,-0.615601 1.969727,-0.920776c-0.508423,-0.305664 -2.989014,-0.040039 -5.512085,0.589355c-4.783813,1.193726 -5.071899,0.334717 -0.91333,-2.7229c3.495483,-2.57019 4.913452,-2.515259 10.530518,0.408569l5.029785,2.618286l-3.634766,2.875732c-3.970459,3.141235 -9.260864,5.018188 -11.084351,3.932861c-0.63623,-0.37854 -2.356567,-0.760498 -3.822876,-0.848511c-1.466309,-0.088013 -2.470581,-0.486084 -2.231445,-0.884155l0.000122,-0.000244zm-5.04834,-9.569946c-0.052979,-1.978394 0.196167,-4.562256 0.554443,-5.742065c0.701904,-2.310303 8.121704,-9.531494 9.155518,-8.910645c0.341797,0.205322 0.44751,0.662598 0.235229,1.016357c-0.212524,0.353638 0.294922,2.127441 1.127563,3.941895c2.49585,5.438721 0.759033,10.204712 -4.585693,12.584839c-1.860962,0.828613 -1.875854,0.710571 -0.263306,-2.085327c2.914917,-5.053833 2.601685,-7.306763 -0.350952,-2.525513c-2.598145,4.206665 -4.489746,6.210205 -5.319946,5.634155c-0.25061,-0.17395 -0.49939,-1.935059 -0.552856,-3.913696zm82.608154,50.195557c-0.888184,-1.729614 -3.703979,-4.431763 -7.808594,-7.492554c-10.766113,-8.028809 -12.031494,-14.088745 -5.438965,-26.049561l3.744263,-6.792969l-0.946899,4.759155c-1.074951,5.401123 -0.322632,10.029175 2.592773,15.952515c2.886841,5.864502 3.515381,5.670776 1.950317,-0.60144c-1.614258,-6.468994 -1.192993,-14.736816 1.054321,-20.687866c0.88855,-2.353149 1.762085,-4.055176 1.941162,-3.782227c12.022705,18.321533 12.626831,21.163696 7.627808,35.875732c-1.539185,4.529907 -2.839478,9.060303 -2.889282,10.067749c-0.106812,2.162842 -0.05896,2.195923 -1.826904,-1.248535zm-41.276001,-60.302612c-1.354492,-1.556763 -3.714844,-5.211914 -5.245361,-8.122681c-1.530396,-2.910767 -3.875,-6.796021 -5.210327,-8.634033l-2.427979,-3.341675l2.907593,1.079346c1.911377,0.709351 5.515625,0.59082 10.517822,-0.345947c4.185669,-0.783813 8.546875,-1.378784 9.691895,-1.321899c3.464966,0.171387 8.782227,3.78479 11.321777,7.69397c2.446899,3.766235 6.174805,14.630981 4.183228,12.192017c-5.397339,-6.610352 -6.341919,-7.454346 -10.291382,-9.194946c-2.296753,-1.012085 -5.872559,-2.025513 -7.946655,-2.251709l-3.771118,-0.411499l4.455688,2.143677c7.606567,3.659546 14.890625,11.297729 17.669312,18.528198l0.934937,2.432495l-2.006104,-1.204834c-1.103149,-0.662598 -4.812988,-1.563965 -8.244019,-2.002686c-7.631958,-0.976563 -13.218506,-3.421143 -16.539307,-7.237427l0,-0.000366zm45.15686,7.276611c1.916382,-6.682251 9.576172,-15.618408 16.97522,-19.803833l3.875854,-2.192627l-4.823975,1.090454c-5.847778,1.321899 -10.813843,4.438843 -14.58667,9.155396l-2.819702,3.524902l1.164185,-4.756714c1.740234,-7.108521 5.227905,-12.413574 9.803345,-14.912231c3.074707,-1.679321 5.077881,-1.943237 10.750488,-1.416748c3.834229,0.355713 7.25293,0.81604 7.597046,1.022095c0.344116,0.206665 2.297729,-0.014038 4.341431,-0.490112l3.71582,-0.865601l-5.285767,10.023193c-7.213135,13.678101 -8.886475,15.185913 -19.798096,17.839844c-4.62793,1.125854 -9.106567,2.442871 -9.952515,2.92688c-1.40686,0.805054 -1.488525,0.707397 -0.957031,-1.14563l0.000366,0.000732zm-8.356567,-8.097168c-3.254395,-7.467651 -4.508789,-15.585938 -3.387573,-21.923584c0.925903,-5.233765 0.248779,-5.85144 -1.612183,-1.470581c-2.578247,6.069824 -3.127808,12.365601 -1.512329,17.330322c1.203979,3.699829 1.192627,4.175415 -0.066895,2.800903c-0.834351,-0.910522 -2.449585,-3.113525 -3.589355,-4.895264c-6.826538,-10.671143 -5.575317,-18.075684 4.516357,-26.726929c2.534302,-2.172607 5.129883,-5.150513 5.907593,-6.778198l1.387329,-2.903198l2.475586,6.031738c1.361816,3.317505 3.369873,7.999146 4.462646,10.403564c3.157959,6.949097 2.656372,11.957153 -2.14502,21.418701c-2.21875,4.372192 -4.026855,8.497192 -4.018433,9.166748c0.023071,1.837524 -1.000732,0.797974 -2.418091,-2.454224l0.000366,0z"/>
    <path fill="#000000" d="m1347.502319,1588.394043c0.348755,-0.852417 1.878174,-2.433105 3.398926,-3.512695c3.174561,-2.254028 3.643555,-4.243164 0.828979,-3.516357c-2.178101,0.562378 -2.297607,0.017944 -0.553101,-2.51709c1.921753,-2.792725 5.079834,-4.166382 7.822876,-3.402344c2.110107,0.587524 2.228027,0.510742 2.313843,-1.507568l0.089966,-2.126587l4.991699,3.392578c7.895752,5.366089 8.557129,7.374023 5.013184,15.223877c-1.238647,2.743896 -2.22876,5.355835 -2.200195,5.804199c0.210083,3.287598 5.587158,-7.959839 6.755371,-14.130615c1.743774,-9.211304 0.101807,-16.433838 -4.695801,-20.655151c-4.731689,-4.163208 -10.204468,-3.931885 -12.741699,0.538696c-1.028564,1.812378 -1.012329,2.058716 0.246338,3.735107c0.99353,1.323486 1.859375,1.702148 3.298706,1.441895c2.633057,-0.475708 2.646118,-3.370728 0.014038,-3.097168c-1.616211,0.168091 -1.654907,0.102051 -0.504272,-0.857422c2.858154,-2.384155 6.003784,2.822998 3.266357,5.406982c-1.794678,1.69397 -5.577393,1.374146 -7.545044,-0.637939c-3.767944,-3.853149 -2.082886,-11.274414 3.181274,-14.01062c3.837036,-1.994141 5.563965,-4.262695 4.418701,-5.804321c-0.91333,-1.229614 -1.965088,-1.291504 -4.120605,-0.24231c-1.125977,0.547974 -1.189697,0.384766 -0.599976,-1.533081c0.918823,-2.987305 2.882202,-5.179199 6.228149,-6.953003c2.894165,-1.534302 3.725342,-1.517212 10.283203,0.211792c1.030884,0.271851 1.118286,-0.212769 0.609009,-3.376587c-0.327148,-2.031616 -0.431519,-3.704346 -0.232178,-3.717163c0.199341,-0.013062 1.902954,1.283447 3.785522,2.880249c1.88269,1.596802 5.129272,3.953003 7.214478,5.236206c5.414673,3.331909 7.628906,7.135742 8.501099,14.603271c0.662476,5.672607 0.589478,6.213623 -1.404663,10.404297c-1.156982,2.431274 -2.788696,5.951904 -3.626221,7.823608l-1.522583,3.402954l-0.285767,-4.389282c-0.457275,-7.05896 -4.629272,-12.229248 -8.119629,-10.064087c-2.518677,1.562256 -2.203735,4.344238 1.120972,9.902954c2.762207,4.618164 3.091187,5.620117 2.914673,8.880615c-0.115967,2.141357 0.091919,3.656494 0.497925,3.630615c1.52124,-0.097046 14.421021,-15.592896 17.706177,-21.268921c7.130615,-12.320679 10.700195,-25.115234 10.582397,-37.930664c-0.060059,-6.52478 -0.286377,-8.070068 -1.383667,-9.441284c-1.257813,-1.572021 -1.296021,-1.353882 -0.924805,5.294189c0.219116,3.921631 0.030029,8.073486 -0.435181,9.557373c-0.485229,1.548218 -0.880615,2.070679 -0.964478,1.274658c-0.270386,-2.566528 -2.847046,-6.203247 -7.920654,-11.178955c-2.802002,-2.747925 -5.486084,-5.797607 -5.9646,-6.7771c-0.478638,-0.979492 -1.303589,-4.893555 -1.833374,-8.697998c-0.529785,-3.804565 -1.273193,-7.558594 -1.651978,-8.342407c-0.646851,-1.338623 -0.598633,-1.359009 0.791016,-0.33606c0.813843,0.598999 3.938843,2.172241 6.944336,3.495972c4.799805,2.114014 5.694458,2.825317 7.352295,5.845947c1.192261,2.171997 2.365356,3.4198 3.18396,3.386475c1.485474,-0.060059 1.303589,-1.022461 -1.641846,-8.680176c-2.698608,-7.016357 -6.445557,-12.677612 -11.211914,-16.940308c-5.325439,-4.762695 -10.236694,-6.804932 -16.968018,-7.055786l-5.165894,-0.192505l5.495728,-0.214722c7.025757,-0.274536 11.477783,1.458618 17.44812,6.792236c5.156616,4.606812 11.289795,14.496094 13.110718,21.140137c1.306885,4.768433 2.921997,5.919434 1.887573,1.345215c-1.191284,-5.268188 -5.946533,-15.067261 -9.792847,-20.17981c-4.62207,-6.143677 -10.942749,-11.487671 -16.310059,-13.789917c-13.782715,-5.911865 -31.558105,-2.013062 -37.276855,8.176392c-2.221436,3.957886 -2.049927,8.667969 0.388306,10.664795c2.006104,1.643066 5.281494,1.615356 6.752808,-0.057007c1.062134,-1.207031 0.661743,-3.32666 -0.612915,-3.245239c-0.383057,0.024048 -0.472046,0.360718 -0.197632,0.747314c0.274414,0.386475 -0.013916,0.735474 -0.641724,0.775513c-1.463379,0.093018 -1.624756,-2.01123 -0.204224,-2.663208c2.661621,-1.221436 4.713379,3.403564 2.455322,5.53479c-1.881104,1.775635 -6.462891,1.660645 -8.30542,-0.208374c-2.803955,-2.844116 -3.108887,-6.052002 -1.029419,-10.825073c2.930786,-6.726685 8.493164,-10.458496 18.075439,-12.126465l4.204346,-0.731934l-1.497192,-1.449707c-2.419922,-2.343262 -3.334351,-4.336792 -3.552124,-7.743042c-0.260498,-4.076172 1.563477,-6.530762 5.016724,-6.751465c2.945801,-0.188232 4.36145,1.123047 4.220947,3.90979c-0.087891,1.757202 -0.43689,2.092529 -2.299194,2.211548c-1.702026,0.108765 -2.215698,-0.186035 -2.287598,-1.312988c-0.109863,-1.716797 2.303589,-2.600098 3.3125,-1.21228c0.552124,0.759399 0.676147,0.72229 0.626953,-0.18811c-0.161011,-2.983154 -4.251465,-3.604736 -6.350342,-0.965088c-1.58606,1.994873 -1.307129,6.585083 0.550659,9.060181c1.966431,2.619873 4.426392,3.753174 10.600708,4.883423c10.169922,1.861816 17.083618,5.991455 23.69043,14.150513c5.525879,6.824341 11.933105,19.008057 12.201172,23.201294c0.112183,1.75708 -0.153809,1.760742 5.104004,-0.069946c7.435669,-2.588379 12.94397,-0.250244 18.230835,7.739014c3.083862,4.659912 3.008057,5.111206 -0.451416,2.68689c-3.828491,-2.682983 -7.494263,-3.870239 -12.696777,-4.112305c-4.820068,-0.224365 -4.696777,0.708618 0.25061,1.896729c4.510132,1.08313 9.860107,4.269897 13.769897,8.202271c1.929565,1.940796 3.519653,3.698853 3.533325,3.906982c0.041016,0.626099 -14.794556,0.914307 -17.759399,0.344849c-1.515381,-0.291016 -3.793213,-1.294922 -5.061768,-2.231079l-2.306763,-1.702026l-0.187378,2.431763c-0.103149,1.337402 -0.38916,5.088989 -0.63562,8.337036c-0.637573,8.4021 -4.07251,21.516357 -7.445068,28.424683c-1.587036,3.250854 -2.879761,5.99939 -2.872925,6.107666c0.01001,0.108398 2.644409,-1.426392 5.861084,-3.410645c16.297363,-10.053101 29.884399,-8.01062 37.317871,5.609619c1.095093,2.00647 1.96936,3.257324 1.942749,2.779541c-0.026978,-0.477783 -1.909546,-4.129761 -4.184448,-8.115356c-5.255981,-9.208496 -5.803101,-13.422241 -2.734497,-21.056641c1.083496,-2.695435 2.318604,-6.080078 2.744629,-7.521362l0.774658,-2.620605l2.784668,4.964233c2.625244,4.68042 2.813232,5.412109 3.285156,12.798096l0.50061,7.833984l1.223999,-2.802002c1.708374,-3.910522 1.644287,-12.238403 -0.122681,-15.942261l-1.358643,-2.8479l2.805054,2.759155c5.401367,5.312988 7.558838,10.678955 6.467163,16.085938c-0.473022,2.342773 -1.885864,4.605469 -5.347412,8.563477c-2.587646,2.958496 -4.885864,6.123657 -5.107178,7.033691c-0.220825,0.910034 -0.715698,1.885254 -1.098633,2.167358c-0.429321,0.316162 0.324219,3.01355 1.966064,7.037231c2.354736,5.770996 3.27356,7.111572 7.955811,11.607422c4.912476,4.716919 5.431885,5.024658 7.213623,4.272827c4.106201,-1.732422 6.488525,-7.487793 3.712036,-8.967773c-1.862305,-0.992798 -0.421631,-1.292358 2.063354,-0.428955c2.197266,0.763306 2.46106,1.1521 2.63562,3.883301c0.158203,2.475952 -0.234863,3.522217 -2.134521,5.681396c-1.280762,1.455444 -2.855347,2.680054 -3.499146,2.721191c-1.389648,0.088989 -1.455444,0.928955 -0.161743,2.067261c0.67627,0.594971 0.703003,0.836548 0.095947,0.875244c-0.511963,0.033081 -0.05896,1.502563 1.165649,3.782227c5.543945,10.319946 6.333008,18.930298 2.560303,27.934937c-4.022339,9.599854 -9.046265,14.537964 -16.11145,15.83606c-6.238525,1.14624 -11.710449,-2.537476 -10.572632,-7.117432c0.609619,-2.454102 3.36145,-4.199707 5.258057,-3.335449c2.054443,0.936157 2.256836,3.555054 0.284546,3.681152c-0.80481,0.051025 -1.484253,-0.235596 -1.51001,-0.638062c-0.026001,-0.402344 0.282593,-0.752686 0.684937,-0.778442c0.402344,-0.026001 0.709106,-0.398804 0.681641,-0.829102c-0.093018,-1.45752 -3.270874,-0.118774 -4.033447,1.699219c-1.031128,2.458496 0.309814,4.8125 3.456909,6.066528c3.102295,1.23645 4.443359,1.142456 8.674561,-0.607666c4.459473,-1.844727 10.041992,-8.078003 12.420288,-13.868286c1.478638,-3.60022 1.814209,-5.705566 1.731323,-10.86499c-0.109985,-6.856201 -1.282349,-10.838867 -5.134521,-17.442749c-1.734985,-2.974365 -2.236938,-3.346436 -4.332642,-3.212524c-1.303589,0.083008 -3.540649,-0.093994 -4.971313,-0.393311c-2.453247,-0.513672 -2.513672,-0.484009 -1.063599,0.523438c1.457275,1.012451 1.386719,1.05542 -1.354248,0.823975c-3.217285,-0.271729 -7.34436,-3.300049 -8.948486,-6.566528c-0.538452,-1.096313 -0.996704,-4.081421 -1.018188,-6.633545c-0.046021,-5.48999 -1.211304,-6.97644 -3.891113,-4.965088c-0.919312,0.689941 -2.656982,1.147461 -4.075684,1.07312l-2.473022,-0.129761l2.221802,2.687866c1.221802,1.478394 3.447998,5.809204 4.946777,9.624023c1.569214,3.994385 3.714111,8.023193 5.056885,9.498901c1.282349,1.409546 2.343384,2.746582 2.357788,2.971436c0.064941,1.015503 -4.980713,0.575317 -7.285767,-0.635376c-1.405884,-0.738403 -2.736206,-1.138062 -2.956177,-0.888062c-0.220215,0.250122 -0.139404,3.187744 0.179199,6.527832c0.545288,5.714233 0.467407,6.228027 -1.315308,8.693359c-1.042114,1.441284 -2.363281,3.081665 -2.935791,3.645386c-1.963623,1.933594 -8.129761,5.056274 -10.268311,5.200073l-2.138916,0.144409l1.401489,-1.742432c2.25293,-2.801147 2.415771,-4.814453 0.484253,-5.991211c-2.1698,-1.322021 -4.161133,-0.17627 -8.425537,4.847534c-5.143677,6.059692 -11.302979,8.747314 -16.776855,7.320679c-8.492065,-2.213257 -7.849243,-17.960449 0.663696,-16.259277c1.08728,0.217285 2.505249,1.20874 3.150879,2.203247c1.042114,1.605591 1.046875,2.031616 0.041992,3.801636c-1.315796,2.318115 -2.987549,2.853882 -1.751587,0.561401c0.594849,-1.103638 0.585083,-1.851074 -0.036011,-2.70874c-1.305176,-1.802979 -2.379761,-1.789917 -3.997192,0.047974c-1.747925,1.986572 -1.195313,4.848145 1.292969,6.694824c5.366699,3.982788 13.066162,-3.729004 11.34082,-11.359131c-1.344849,-5.947632 -5.837524,-11.020386 -12.112183,-13.675781c-7.977417,-3.376099 -21.461182,-3.514648 -31.287598,-0.321411c-6.668335,2.167114 -9.161987,3.588623 -13.516113,7.7052c-3.418823,3.232178 -4.967896,3.234741 -4.340576,0.01001c0.190674,-0.981201 -0.112061,-1.380859 -1.002808,-1.323853c-0.957886,0.061035 -0.589722,-0.765381 1.476685,-3.31604c4.271362,-5.272583 5.114868,-7.730713 4.753662,-13.852905c-0.303711,-5.147095 -0.418701,-5.444336 -2.842285,-7.3479c-1.389282,-1.091309 -3.32019,-1.933105 -4.291138,-1.871094c-2.090942,0.133545 -3.951782,2.023193 -3.832397,3.891724c0.088989,1.396729 2.012573,2.401001 3.108398,1.623047c1.025146,-0.727783 0.665039,-1.699707 -0.74585,-2.013306c-0.785156,-0.174438 -0.595581,-0.281128 0.476196,-0.267944c2.243164,0.026978 2.77356,1.258179 1.275879,2.960449c-1.247925,1.418213 -4.51416,1.29126 -5.615723,-0.218262c-0.81189,-1.112671 -0.844971,-3.422974 -0.07605,-5.302734l0.001953,-0.00293zm16.483643,6.534058c0.887573,1.265991 1.665771,3.117188 1.72937,4.113281c0.063965,0.996338 0.37915,1.794556 0.70105,1.774048c1.453491,-0.093018 2.210571,-2.194702 1.996582,-5.54248c-0.318481,-4.983643 -3.092896,-7.650879 -5.322388,-5.117065c-1.129639,1.283813 -0.976196,2.101929 0.895386,4.772217zm20.597412,-2.386353c6.244141,-1.045654 9.612549,0.082031 15.915894,5.328003c6.078735,5.05896 8.982178,6.077393 12.164307,4.266724c2.690796,-1.531006 3.405518,-4.73877 1.72644,-7.749023c-1.687622,-3.025635 -4.105225,-4.36438 -11.383301,-6.303833l-5.888672,-1.569214l3.136475,-0.706421c1.72522,-0.388428 5.727905,-1.540283 8.89502,-2.559692c4.599487,-1.480347 7.219849,-1.869507 13.020508,-1.933594c6.339722,-0.069946 7.89917,0.19043 12.278198,2.050293l5.016113,2.130493l-0.427246,-2.283447c-0.393433,-2.103027 -0.789795,-2.367676 -5.015259,-3.349854c-3.540771,-0.82312 -6.75769,-0.908081 -14.093384,-0.371948c-8.144897,0.595337 -10.722778,1.101563 -18.008789,3.536743c-10.213135,3.413452 -21.251953,8.592407 -21.166504,9.93042c0.01001,0.122803 1.731445,-0.064087 3.8302,-0.415649zm5.458374,-6.547363c2.058716,-0.97644 4.100708,-1.946777 4.537598,-2.156128c0.43689,-0.209473 1.106201,-1.199951 1.487183,-2.200928c0.380981,-1.000977 2.125244,-3.821533 3.876099,-6.267822c7.696533,-10.75354 13.316528,-22.927734 15.7771,-34.176514c1.379272,-6.305908 2.098633,-18.678101 1.187256,-20.42334c-0.497314,-0.952637 -0.752319,0.759644 -0.836304,5.616089c-0.338867,19.604858 -7.200073,36.03125 -21.9104,52.455078c-4.222412,4.714233 -7.718628,8.651733 -7.769409,8.750122c-0.051025,0.098022 1.592041,-0.620117 3.650879,-1.596558zm12.685425,-5.213989c10.376221,-3.367798 23.510498,-4.009399 34.14502,-1.668457c2.089355,0.459961 4.295776,0.608154 4.903442,0.329346c0.648926,-0.297852 1.550537,0.047974 2.185059,0.837158c0.594238,0.739258 1.836182,1.530762 2.759766,1.758911c1.49585,0.369507 1.663452,0.165527 1.533691,-1.865601c-0.189331,-2.96228 -1.96167,-5.850098 -4.938477,-8.046631c-2.154297,-1.589478 -2.534912,-1.650635 -3.923462,-0.631104c-2.871216,2.108398 -7.84375,3.23645 -18.893433,4.286133c-11.264038,1.069946 -19.089111,2.874023 -22.024902,5.077515c-0.905518,0.679688 -1.529053,1.33313 -1.385376,1.452026c0.143677,0.118896 2.681152,-0.569336 5.638672,-1.529297zm30.459106,-15.891602c4.256714,1.834351 7.800171,2.386353 9.752075,1.519043c1.650024,-0.733154 1.675659,-0.703125 0.578125,0.677246c-1.543213,1.940918 -1.452759,2.246094 1.260742,4.248291c3.184082,2.349365 4.707886,5.111816 4.955444,8.983154c0.141479,2.214233 0.565918,3.362183 1.331909,3.601318c1.52124,0.474854 1.198975,-4.629517 -0.600952,-9.52356c-2.925415,-7.952637 -9.849976,-12.824097 -17.55188,-12.347534c-4.006958,0.247437 -3.931274,1.029297 0.274902,2.841919l-0.000366,0.000122zm8.469482,20.414063c1.515869,1.33374 2.642822,1.288696 4.387207,-0.175415c1.26123,-1.058594 1.264038,-1.164063 0.040894,-1.550415c-0.721558,-0.228027 -1.834473,-0.174805 -2.4729,0.118164c-0.63855,0.293091 -1.637085,0.186523 -2.218994,-0.236816c-1.504395,-1.09436 -1.27832,0.487915 0.263428,1.844482l0.000366,0zm-90.157715,-54.370605c0.591919,-0.672852 1.629517,-1.248535 2.305786,-1.279419c1.118408,-0.051025 1.118042,0.018066 0,0.771362c-2.660156,1.785645 -0.154663,6.562378 3.325317,6.339966c2.135254,-0.136475 5.477173,-4.789917 7.952271,-11.073364c1.161987,-2.950073 2.66748,-6.1073 3.345459,-7.016113c3.186279,-4.271362 10.081299,-5.757813 15.660156,-3.376221c7.249023,3.094727 14.332031,10.001221 15.820068,15.426147l0.594116,2.165771l-1.286865,-1.937134c-1.728027,-2.601074 -7.572998,-4.995728 -14.550049,-5.960815c-6.19043,-0.856445 -10.548828,-2.550049 -12.088745,-4.69751c-0.881714,-1.229736 -0.754272,-1.366455 1.414063,-1.514038c3.075806,-0.209595 5.630249,-1.080444 5.577881,-1.901489c-0.022949,-0.355347 -1.521851,-0.551514 -3.331543,-0.435913c-2.7323,0.174561 -3.742798,0.674927 -5.959717,2.950928c-2.879272,2.955933 -4.376587,7.639771 -3.531372,11.046875c1.19397,4.811523 -2.215942,10.268921 -6.574463,10.522217c-1.172241,0.06897 -1.260986,-0.062012 -0.445679,-0.654053c0.724731,-0.526123 0.075928,-0.74585 -2.252563,-0.763062c-1.9729,-0.013916 -3.293457,-0.381348 -3.328125,-0.924438c-0.031982,-0.495361 -0.831543,-1.371948 -1.777466,-1.948242c-2.001709,-1.219604 -2.41748,-3.977417 -0.865356,-5.741455l-0.003174,0zm-0.887573,-20.748291c0.399902,-0.93457 1.087891,-1.727539 1.528931,-1.761841c0.441162,-0.033936 0.286987,-0.362915 -0.342529,-0.730103c-0.962402,-0.561279 -0.814087,-0.984619 0.931885,-2.659668c2.850464,-2.734741 6.984863,-5.164429 8.998901,-5.288574c0.921753,-0.055054 3.044312,0.623535 4.717285,1.512085c3.546631,1.883667 4.764038,2.048828 3.24585,0.44043c-0.945679,-1.001953 -0.89624,-1.098267 0.409912,-0.799561c0.816772,0.186768 3.626099,0.738037 6.24292,1.224731c6.083252,1.131836 7.706909,2.182251 11.352661,7.345337c1.637817,2.319458 3.981567,5.442383 5.208252,6.939697c1.226563,1.497314 2.25293,3.078613 2.280762,3.514038c0.028076,0.435547 -0.848877,-0.365601 -1.948242,-1.780151c-2.712769,-3.490601 -9.960571,-8.578369 -14.999634,-10.529541c-5.690552,-2.203247 -15.442749,-2.092407 -19.085815,0.217041c-3.798462,2.407959 -5.688843,6.104004 -5.035522,9.845337c0.608398,3.483032 -0.093994,3.988281 -2.005615,1.441772c-1.668701,-2.223389 -2.430298,-6.75708 -1.5,-8.93103zm26.001709,-22.645508c3.471191,-1.936157 5.141235,-1.882935 7.371216,0.234741c2.097778,1.992065 2.584839,3.407593 1.002686,2.913696c-1.371826,-0.428345 -2.942749,0.789795 -2.259521,1.752197c0.305054,0.429688 1.679932,0.709351 3.055298,0.62146c2.980347,-0.190552 4.527954,1.499512 5.560547,6.072388c0.833252,3.689453 0.234375,4.02063 -1.378296,0.762451c-2.23999,-4.525879 -8.159424,-6.767822 -10.25647,-3.884888c-0.927979,1.275513 -0.301025,3.334229 0.990234,3.251709c0.457886,-0.028931 0.611694,-0.534912 0.341431,-1.123657c-0.270142,-0.588867 -0.172241,-1.090942 0.217529,-1.115845c1.106445,-0.070923 1.005127,2.6698 -0.117798,3.185181c-1.310669,0.601318 -3.472778,-1.533203 -3.602051,-3.556274c-0.109619,-1.714111 -1.266724,-2.095337 -1.720825,-0.566772c-0.153076,0.514771 -0.592651,0 -0.976929,-1.150269c-0.43042,-1.2854 -0.407471,-2.626587 0.059937,-3.493286c0.470215,-0.872192 0.478027,-1.388794 0.020996,-1.359497c-1.571411,0.100342 -0.700195,-1.208496 1.692749,-2.543335l-0.000732,0zm4.979248,-7.972168c4.407227,-0.13562 6.380249,0.206299 9.9104,1.717896c7.285034,3.119629 14.557739,11.333008 16.131348,18.218262l0.545288,2.385742l-3.752075,-1.7677c-2.063721,-0.972168 -5.640259,-3.255371 -7.947998,-5.07373l-4.195923,-3.306152l2.588623,0.273682c2.404541,0.254517 2.482666,0.203247 1.099121,-0.719727c-0.819214,-0.546631 -1.875977,-0.969116 -2.348389,-0.938965c-1.510986,0.097046 -4.905151,-2.683594 -4.994995,-4.091675c-0.110352,-1.724731 -3.526245,-3.854736 -8.592529,-5.357666l-3.945679,-1.170654l5.502808,-0.169312zm0.623413,47.177002c1.544434,0.458984 4.807617,1.086304 7.251465,1.394165c3.751099,0.472412 4.958496,1.029907 7.750366,3.578369c4.181885,3.817261 5.93689,7.245483 6.389526,12.480835c0.394165,4.560059 0.972046,4.801636 2.005005,0.837891c0.903198,-3.465942 -0.350098,-7.809448 -4.792236,-16.606934c-1.899292,-3.761108 -3.271729,-7.044434 -3.050171,-7.296387c0.22168,-0.251831 0.425781,-0.101807 0.453491,0.333374c0.028076,0.435181 1.786743,1.902588 3.908569,3.260864c6.878906,4.40332 9.171387,11.28125 6.826172,20.47998c-1.171631,4.595337 -6.649658,17.434448 -8.700073,20.390137l-1.333008,1.921753l0.427246,-2.231079c0.234863,-1.227173 0.197266,-5.356812 -0.083984,-9.177246c-0.81311,-11.052246 -3.933716,-16.55481 -12.530273,-22.094727c-3.585938,-2.310791 -7.188965,-6.071777 -7.296387,-7.615967c-0.019043,-0.269409 1.229614,-0.114136 2.774048,0.344971l0.000244,0zm13.424927,-66.416382l0.998291,-3.88501l4.053345,3.077393c4.617554,3.505981 5.256348,5.714355 2.996216,10.358887l-1.29126,2.653687l0.223511,-2.21814c0.122803,-1.219971 -0.295776,-3.176636 -0.930298,-4.348145c-1.137695,-2.10022 -1.151001,-2.068481 -0.944092,2.26416c0.297485,6.227783 -0.389404,7.002563 -3.070923,3.463745c-2.788086,-3.679688 -3.289795,-6.4823 -2.03479,-11.366577zm9.583252,9.200073c0.202637,-1.970459 0.920044,-4.276245 1.594238,-5.124268c1.034546,-1.301147 6.884399,-6.183594 7.452515,-6.219849c0.100464,-0.01001 0.260254,0.727173 0.35498,1.630127c0.094971,0.903076 0.499146,3.108521 0.898804,4.901123c0.602539,2.701782 0.486328,3.607788 -0.679321,5.295898c-0.773315,1.120117 -2.346069,2.433228 -3.494995,2.918091l-2.088989,0.881226l1.599976,-2.715698c0.880005,-1.493652 1.564941,-3.245728 1.521851,-3.893799c-0.046021,-0.699585 -0.582642,-0.217529 -1.320557,1.187134c-1.597412,3.040161 -6.426636,7.112305 -6.257813,5.276611c0.027954,-0.304932 0.216675,-2.166382 0.419312,-4.136597zm2.311401,12.593506c1.562012,-0.099976 6.650269,2.581299 8.214966,4.328613c0.911377,1.017578 1.630615,1.437744 1.598389,0.933716c-0.031982,-0.504028 -1.418457,-2.112793 -3.080444,-3.575195c-3.151367,-2.772705 -2.689209,-3.390137 1.464844,-1.957397c3.491821,1.204224 4.139526,2.223877 4.810303,7.572998l0.600586,4.789917l-3.773315,-1.154053c-4.12146,-1.260498 -7.996582,-4.057373 -8.118774,-5.859863c-0.043091,-0.628662 -0.60791,-2.018311 -1.255737,-3.088013c-0.648071,-1.06958 -0.855347,-1.965454 -0.460815,-1.990723zm4.259277,-8.167114c1.359863,-0.994873 3.290283,-2.070679 4.290039,-2.390625c1.957764,-0.626465 10.606201,1.075073 10.671631,2.099731c0.021973,0.338745 -0.247437,0.634155 -0.5979,0.656616c-0.350586,0.021973 -1.34729,1.236206 -2.21521,2.697388c-2.601196,4.380127 -6.779663,5.470581 -11.033203,2.878906c-1.481079,-0.902222 -1.40564,-0.969849 1.333008,-1.193604c4.950195,-0.404297 6.376587,-1.713989 1.598999,-1.468018c-4.203735,0.216309 -6.522339,-0.138916 -6.52063,-0.999146c0.000366,-0.259766 1.113525,-1.286377 2.473267,-2.28125zm4.824341,82.148804c0.781494,-1.458984 1.311035,-4.738892 1.468384,-9.094849c0.41272,-11.426025 4.044434,-15.244995 15.612061,-16.416382l6.56958,-0.665161l-3.791504,1.640015c-4.302856,1.861084 -7.180298,4.627808 -9.917603,9.536499c-2.710327,4.859985 -2.270386,5.206421 1.365112,1.074707c3.74939,-4.261353 9.743774,-7.967529 14.999268,-9.273804c2.078125,-0.516602 3.692871,-0.728516 3.588379,-0.470947c-7.013184,17.287231 -8.711304,19.08606 -21.434448,22.704956c-3.917603,1.114258 -7.719849,2.39624 -8.449585,2.848999c-1.566528,0.971802 -1.566284,1.021606 -0.01001,-1.884033l0.000366,0zm22.257813,-58.092651c0.434814,-1.702026 1.852295,-5.124146 3.150269,-7.604736c1.297852,-2.480591 2.884277,-6.003052 3.525146,-7.827881l1.165405,-3.317627l0.651489,2.558716c0.428101,1.682007 2.255371,4.148804 5.332397,7.199097c2.574707,2.552002 5.102051,5.318604 5.616455,6.147949c1.556885,2.509766 1.599487,7.982544 0.090942,11.653076c-1.453491,3.536499 -7.258667,11.405518 -6.514282,8.830444c2.017456,-6.97937 2.151489,-8.049438 1.458984,-11.657959c-0.402588,-2.098389 -1.423584,-5.093262 -2.268799,-6.655396l-1.536865,-2.84021l0.655029,4.158203c1.118286,7.098389 -0.705933,15.896484 -4.425049,21.341919l-1.251221,1.831909l-0.127075,-1.988037c-0.069946,-1.093384 -1.234009,-4.127808 -2.586914,-6.743042c-3.009766,-5.817871 -4.001343,-10.913574 -2.935669,-15.086426l-0.000244,0zm16.758057,35.148071c5.607544,-1.891846 15.573242,-0.851929 22.085449,2.304443l3.411377,1.653442l-3.098267,-2.850708c-3.756226,-3.456055 -8.342407,-5.425415 -13.471802,-5.785278l-3.833374,-0.268799l3.895142,-1.48645c5.820923,-2.221436 11.224121,-2.346313 15.188599,-0.351074c2.664063,1.34082 3.818481,2.615967 6.194946,6.843628c1.606567,2.857544 2.938721,5.474609 2.960571,5.815674c0.021973,0.340942 1.121826,1.602417 2.444336,2.803345l2.404785,2.183472l-9.578125,1.148926c-13.070679,1.567871 -14.936646,1.12561 -22.076294,-5.232056c-3.028076,-2.696411 -6.118042,-5.195557 -6.866455,-5.553833c-1.244629,-0.595825 -1.215698,-0.700317 0.339111,-1.224731zm1.626709,-9.771484c3.655151,-5.893311 8.733765,-10.700928 13.715088,-12.982788c4.11377,-1.884521 4.218506,-2.657715 0.249634,-1.84082c-5.498779,1.131714 -10.174194,3.793945 -12.869507,7.328125c-2.008667,2.633789 -2.347168,2.855957 -1.993896,1.308838c0.234009,-1.025024 0.995117,-3.222412 1.691406,-4.883057c4.1698,-9.945313 9.961426,-12.65271 20.904419,-9.771729c2.748169,0.723511 6.089966,1.100098 7.606323,0.857056l2.70459,-0.43335l-3.026123,4.653076c-1.664551,2.559204 -3.971558,6.231323 -5.126709,8.160278c-3.338501,5.574951 -7.088623,7.647339 -16.039185,8.863647c-4.135742,0.562012 -7.89978,1.292114 -8.364746,1.62207c-1.275635,0.90564 -1.043091,-0.314819 0.548706,-2.881348z" id="path37385"/>
    <path fill="#000000" d="m1501.955566,1474.733398c-0.585449,5.297974 2.24707,13.866577 6.277344,18.989258l2.111206,2.683594l-3.10437,-2.177734c-3.76355,-2.640015 -6.379028,-6.296387 -7.682495,-10.740479l-0.974121,-3.321045l-0.558472,3.713135c-0.834473,5.549316 0.094971,10.327515 2.613647,13.431885c1.692505,2.08606 3.036499,2.856445 7.213623,4.134033c2.823486,0.86377 5.382568,1.532227 5.686768,1.48584c0.304321,-0.046021 1.625977,0.678711 2.937134,1.61145l2.383789,1.695679l-0.832031,-8.648804c-1.135498,-11.802368 -1.883667,-13.359009 -8.85144,-18.417847c-2.9552,-2.145508 -5.748901,-4.383423 -6.20813,-4.973022c-0.763672,-0.980591 -0.850098,-0.934937 -1.012451,0.534058zm5.476807,-45.21521c-0.835938,1.234375 -3.229248,3.03064 -6.636597,4.980713c-8.9375,5.115356 -10.461182,9.61084 -6.549561,19.324829l2.221558,5.516846l-0.28064,-3.709961c-0.318604,-4.210571 0.682251,-7.663818 3.449463,-11.90271c2.739624,-4.196899 3.200317,-3.991089 1.428711,0.638184c-1.827148,4.774658 -2.27124,11.106812 -1.111328,15.84436c0.45874,1.873291 0.966064,3.249634 1.127686,3.058472c10.845947,-12.833374 11.56897,-14.940918 9.124756,-26.601563c-0.752441,-3.590332 -1.322998,-7.15918 -1.267822,-7.930542c0.11853,-1.65625 0.158569,-1.67688 -1.506226,0.781372zm-19.884644,42.836914c-6.084961,-1.40979 -12.380737,-1.220947 -17.002197,0.51001c-3.816406,1.429443 -4.376709,1.005371 -1.333862,-1.009888c4.215698,-2.792236 8.885498,-4.086182 12.854248,-3.562134c2.957764,0.390503 3.314697,0.315552 2.102295,-0.441772c-0.803101,-0.501831 -2.689575,-1.411621 -4.192139,-2.021973c-8.999146,-3.655396 -14.40686,-1.677124 -19.518799,7.140137c-1.283691,2.214478 -3.166138,4.58728 -4.284668,5.401245l-1.994751,1.451538l4.893433,1.02356c2.691406,0.562988 6.501587,1.422607 8.467041,1.9104c5.68042,1.409668 9.385986,0.331665 15.848389,-4.610474c2.986084,-2.283691 5.843262,-4.223511 6.349243,-4.310669c1.38855,-0.239136 0.46167,-0.866089 -2.188354,-1.480103l0.000122,0.000122zm7.272461,5.168579c-4.770142,2.378662 -10.436768,9.402466 -12.558228,15.565674l-1.111328,3.228516l0.148071,-3.789185c0.179321,-4.593628 1.835205,-8.773193 4.863892,-12.276855l2.263428,-2.618286l-3.423462,1.542725c-5.116089,2.305542 -8.628174,5.67627 -9.872559,9.474976c-0.836182,2.552856 -0.755371,4.099976 0.434204,8.302979c0.804199,2.840942 1.628906,5.354126 1.832886,5.584717c0.203735,0.230469 0.310547,1.734131 0.237183,3.341553l-0.133423,2.922363l6.817993,-5.385864c9.304077,-7.349731 10.207153,-8.822144 10.682983,-17.419434c0.201904,-3.646362 0.569092,-7.206909 0.815796,-7.912354c0.410278,-1.173096 0.325195,-1.221069 -0.997437,-0.561523zm-11.796875,-33.027588c-1.362915,-0.803711 -4.448486,-2.07251 -6.856934,-2.819458c-2.408447,-0.746948 -5.665161,-1.97168 -7.237549,-2.72168l-2.858643,-1.363525l1.220093,2.04126c0.80188,1.341919 1.216309,4.075684 1.209229,7.978027c-0.01001,3.265137 0.154907,6.63623 0.357788,7.491577c0.613525,2.588379 4.080811,6.092163 7.382813,7.460449c3.181519,1.318481 11.893677,2.610596 9.776611,1.450073c-5.738037,-3.145508 -6.506348,-3.739746 -8.370605,-6.473999c-1.084106,-1.590088 -2.347778,-4.144531 -2.808228,-5.676514l-0.83728,-2.785522l2.239014,3.05957c3.822021,5.223389 10.598511,9.647461 16.437988,10.731934l1.9646,0.364868l-1.188721,-1.343994c-0.653687,-0.739258 -1.851685,-3.410156 -2.662109,-5.935303c-1.802856,-5.617554 -4.426758,-9.487793 -7.768066,-11.458008l0,0.000244zm51.231812,22.69104c-1.428101,-0.427856 -3.858887,-2.173218 -6.740112,-4.839844c-7.557739,-6.994751 -12.303223,-7.101807 -20.399292,-0.459961l-4.598145,3.772217l3.455688,-1.37915c3.921753,-1.565186 7.516113,-1.644775 12.389282,-0.274536c4.824829,1.356689 4.766479,1.857788 -0.180908,1.554321c-5.102661,-0.312866 -11.2771,1.160278 -15.449707,3.686157c-1.649902,0.998779 -2.810913,1.895142 -2.5802,1.991943c15.493164,6.503662 17.720459,6.562012 28.113403,0.737061c3.200073,-1.793457 6.434082,-3.40686 7.186646,-3.585205c1.615601,-0.383057 1.647339,-0.351196 -1.196777,-1.203003l0.000122,0z" id="path37387"/>
    <path fill="#000000" id="path37389" d="m1675.787842,1509.172852c-1.958862,-1.457153 -6.001221,-2.31958 -8.958496,-1.911499l-1.549194,0.213745l1.578979,-0.723389c1.914185,-0.876953 3.9646,-1.064941 6.022949,-0.552124l1.538086,0.383179l-1.338623,-1.079712c-2.000488,-1.613647 -4.10437,-2.351563 -5.914063,-2.074219c-1.216187,0.186401 -1.831665,0.539551 -3.303101,1.895142c-0.994385,0.91626 -1.85083,1.773315 -1.902832,1.904175c-0.052002,0.131104 -0.644409,0.48584 -1.316162,0.788574l-1.221802,0.550049l3.611206,1.671875c4.928101,2.281494 5.716553,2.345947 9.328125,0.761841c1.531738,-0.671875 3.062622,-1.258423 3.401978,-1.303589c0.564209,-0.074951 0.566284,-0.119751 0.022949,-0.523804l0,-0.000244zm16.606201,12.624878c-0.294556,-0.615845 -0.450928,-1.977539 -0.433472,-3.775635c0.046021,-4.716187 -1.379028,-6.358521 -6.123779,-7.05957l-2.694702,-0.398071l1.531494,0.747437c1.738037,0.848022 2.871582,2.042603 3.906982,4.116943c1.025146,2.053955 0.83728,2.188477 -0.582886,0.417236c-1.4646,-1.826782 -3.86499,-3.467163 -6.005981,-4.104736c-0.84668,-0.252075 -1.508057,-0.369873 -1.469849,-0.261841c2.563843,7.256226 3.229736,8.029541 8.404541,9.760986c1.593262,0.533081 3.135986,1.133179 3.428101,1.333496c0.627197,0.429932 0.626221,0.450562 0.040039,-0.776245l-0.000488,0zm-12.333008,-17.77002c1.964966,-2.079102 3.346802,-4.611572 3.731567,-6.838745c0.317871,-1.839355 0.615112,-1.962769 0.707886,-0.293701c0.128418,2.312378 -0.440308,4.457642 -1.565674,5.905273c-0.838623,1.078857 -0.891479,1.237183 -0.311646,0.933228c0.384033,-0.201416 1.180176,-0.736694 1.769043,-1.189453c3.526855,-2.711548 3.99585,-5.306885 1.692993,-9.36731c-0.578369,-1.019775 -1.080811,-2.312866 -1.143921,-2.943237l-0.112305,-1.124268l-1.536621,1.69751c-0.845093,0.933594 -2.066406,2.240967 -2.713867,2.905029c-1.871338,1.919312 -2.30249,3.633423 -1.843872,7.331299c0.212036,1.708618 0.317871,3.286865 0.235107,3.506958c-0.226563,0.604248 0.23584,0.382813 1.091309,-0.522583zm-3.725464,1.679077c0.163208,-2.435791 -1.302368,-6.300781 -3.247803,-8.565063l-1.019165,-1.186157l1.463623,0.934937c1.774414,1.133667 3.043457,2.755005 3.727783,4.762817l0.511475,1.500488l0.182007,-1.710205c0.272095,-2.555664 -0.247803,-4.723755 -1.461548,-6.094482c-0.815552,-0.921021 -1.445923,-1.246948 -3.382446,-1.749023c-1.309082,-0.339478 -2.493408,-0.594727 -2.631714,-0.567505c-0.138184,0.026978 -0.757324,-0.278442 -1.375732,-0.679199l-1.124268,-0.728882l0.551636,3.94104c0.75293,5.378052 1.125977,6.075684 4.414429,8.252686c1.394653,0.923462 2.717163,1.892212 2.938965,2.152954c0.368774,0.433594 0.407471,0.411011 0.452637,-0.264526l0.000122,0.000122zm15.784546,2.977417c0.633057,-0.352905 1.848389,-1.279175 2.700806,-2.05835c0.852417,-0.779175 2.089966,-1.783325 2.750122,-2.231323l1.200439,-0.814575l-1.089233,0.01001c-0.715942,0.01001 -1.892456,-0.462036 -3.43335,-1.367676c-1.289429,-0.757446 -2.65918,-1.473877 -3.044189,-1.591553c-1.165039,-0.356323 -3.352173,0.203857 -4.656982,1.192505c-1.257202,0.952637 -3.783325,4.097534 -2.834839,3.529053c2.570801,-1.540405 2.983398,-1.706665 4.495605,-1.811035c0.879272,-0.061035 2.181396,0.031006 2.893433,0.203125l1.2948,0.313354l-1.727417,0.177368c-2.948853,0.302368 -6.265381,1.957642 -8.044922,4.015015l-0.598755,0.692261l0.806274,-0.159058c0.443481,-0.087036 1.776367,0.057007 2.962036,0.320679c2.637695,0.586914 4.774536,0.44519 6.326294,-0.4198l-0.000122,0zm-20.821411,15.002197c0.499512,-0.465698 1.751709,-1.022705 3.472412,-1.5448c4.513306,-1.369263 5.653564,-3.220337 4.900879,-7.957275l-0.427368,-2.690186l-0.254272,1.685059c-0.288574,1.912354 -1.088501,3.351563 -2.757568,4.960938c-1.652466,1.593262 -1.837036,1.454346 -0.57251,-0.431152c1.304077,-1.94458 2.150146,-4.726074 2.116943,-6.959961c-0.012939,-0.883179 -0.098999,-1.549438 -0.19043,-1.480713c-6.155029,4.619873 -6.693359,5.486694 -6.795044,10.942505c-0.031006,1.67981 -0.141846,3.331421 -0.245361,3.670288c-0.22229,0.727295 -0.24231,0.7323 0.752319,-0.194824l0,0.000122z"/>
    <path fill="#000000" d="m1446.244995,1463.598145c-1.342773,2.123657 -1.91333,6.339355 -1.264282,9.342407l0.339844,1.573242l-0.865234,-1.564209c-1.04895,-1.896118 -1.401489,-3.985718 -1.035522,-6.137939l0.27356,-1.608276l-1.003906,1.457764c-1.500122,2.178711 -2.093506,4.395264 -1.668091,6.230835c0.285889,1.233521 0.696167,1.837524 2.202026,3.242065c1.0177,0.949463 1.963745,1.761353 2.102173,1.804565c0.13855,0.043091 0.548706,0.623535 0.911743,1.289429l0.659546,1.21106l1.434692,-3.836304c1.957642,-5.234863 1.962402,-6.049072 0.055908,-9.63208c-0.808716,-1.519653 -1.529907,-3.045044 -1.602539,-3.389771c-0.120972,-0.573242 -0.16687,-0.571777 -0.539307,0.016968l-0.00061,0.000244zm11.663452,-18.02478c-0.609009,0.350342 -1.994385,0.616699 -3.84082,0.73877c-4.843628,0.320557 -6.418091,1.910278 -6.768188,6.834106l-0.19873,2.796509l0.647705,-1.629883c0.735107,-1.849731 1.872681,-3.105957 3.920898,-4.330078c2.027954,-1.212036 2.180664,-1.029785 0.473511,0.565552c-1.760742,1.645264 -3.257324,4.236328 -3.744873,6.483276c-0.192749,0.888428 -0.262207,1.576294 -0.154297,1.528809c7.247192,-3.195923 7.988892,-3.939575 9.362915,-9.384888c0.422974,-1.676636 0.918823,-3.306641 1.101563,-3.621948c0.392456,-0.677246 0.413696,-0.677734 -0.799683,0.02002l0,-0.000244zm-17.276245,14.040039c-2.286743,-1.854736 -4.993164,-3.075684 -7.308716,-3.297241c-1.912354,-0.182983 -2.062134,-0.478394 -0.356445,-0.703491c2.363037,-0.31189 4.608887,0.104736 6.182007,1.146973c1.172485,0.776733 1.339111,0.818726 0.982056,0.247192c-0.236572,-0.37854 -0.8479,-1.153687 -1.358276,-1.7229c-3.057495,-3.408203 -5.757324,-3.6875 -9.744995,-1.008179c-1.001587,0.672974 -2.289307,1.289307 -2.931396,1.402954l-1.145142,0.202881l1.861694,1.444702c1.023926,0.7948 2.460571,1.946289 3.192505,2.559204c2.115356,1.770996 3.907959,2.079834 7.667236,1.321411c1.737061,-0.350586 3.348389,-0.582031 3.580811,-0.514404c0.637695,0.185669 0.37439,-0.271606 -0.621338,-1.079102zm2.013062,3.692505c-2.512451,0.021973 -6.364624,1.826904 -8.536987,3.999878l-1.137939,1.138062l0.845703,-1.574829c1.025269,-1.90918 2.590332,-3.337646 4.597534,-4.196289l1.499878,-0.641602l-1.769043,-0.053955c-2.644165,-0.080078 -4.828491,0.621948 -6.140747,1.974121c-0.881714,0.908813 -1.167114,1.581055 -1.531616,3.607544c-0.246338,1.369873 -0.41626,2.60498 -0.377563,2.744873c0.039063,0.139771 -0.226685,0.79895 -0.589844,1.464722l-0.6604,1.210571l4.001465,-0.872925c5.460571,-1.191284 6.147339,-1.62854 8.12561,-5.172729c0.838989,-1.503052 1.730225,-2.935669 1.980591,-3.183716c0.416138,-0.412231 0.390137,-0.450073 -0.306763,-0.443848l0.000122,0.000122zm1.826782,-16.430542c-0.411377,-0.622192 -1.456543,-1.797363 -2.32251,-2.611572c-0.866089,-0.814087 -1.992798,-2.005981 -2.504028,-2.64856l-0.929321,-1.168335l0.094971,1.116943c0.062012,0.734253 -0.326904,1.978149 -1.136353,3.629761c-0.67688,1.382324 -1.305664,2.843872 -1.396362,3.248047c-0.274902,1.223389 0.470093,3.424316 1.586304,4.686401c1.075562,1.215942 4.499634,3.563721 3.842407,2.634521c-1.781006,-2.518311 -1.983765,-2.928955 -2.208618,-4.472534c-0.130615,-0.897705 -0.138306,-2.240967 -0.016968,-2.985229l0.220947,-1.353149l0.316284,1.758911c0.540039,3.002808 2.496826,6.277344 4.746826,7.943481l0.756958,0.560547l-0.225952,-0.815186c-0.124268,-0.44812 -0.079956,-1.827271 0.098999,-3.064575c0.396973,-2.752563 0.085083,-4.934448 -0.92334,-6.459595l-0.000244,0.000122zm17.016724,20.199829c-0.516602,-0.476196 -1.185791,-1.718018 -1.855347,-3.443237c-1.756714,-4.525146 -3.745239,-5.551147 -8.547729,-4.410034l-2.727539,0.648071l1.749023,0.129761c1.984863,0.147217 3.524292,0.856201 5.305664,2.443848c1.763794,1.571655 1.63562,1.771973 -0.397705,0.621094c-2.09729,-1.187012 -5.017578,-1.838745 -7.307373,-1.630737c-0.905396,0.082031 -1.58252,0.221924 -1.504761,0.310791c5.220215,5.956787 6.151733,6.44165 11.758545,6.121338c1.72644,-0.098999 3.429932,-0.11377 3.785767,-0.033936c0.76355,0.171631 0.770508,0.19165 -0.258545,-0.756958z" id="path37391"/>
    <path fill="#000000" id="path37393" d="m1643.516113,1486.470703c-2.986694,1.185669 -6.748901,5.115845 -8.337524,8.709839l-0.832153,1.882813l0.282104,-2.268677c0.342041,-2.750244 1.549805,-5.176514 3.547852,-7.126587l1.493164,-1.45752l-2.135132,0.752075c-3.190918,1.124268 -5.472412,2.969727 -6.413696,5.188354c-0.632446,1.490845 -0.66272,2.424316 -0.162476,5.009766c0.338013,1.747559 0.705322,3.299194 0.81604,3.44812c0.110962,0.148804 0.098022,1.057739 -0.026978,2.019409l-0.229126,1.748657l4.370239,-2.887451c5.963745,-3.940552 6.581299,-4.779053 7.305542,-9.919312c0.307129,-2.180054 0.709229,-4.300171 0.893311,-4.711548c0.306274,-0.683594 0.25769,-0.716797 -0.570557,-0.387939l-0.00061,0zm25.625122,-9.863647c-0.893677,-0.095947 -2.526611,-0.862915 -4.528076,-2.126099c-5.25,-3.313477 -8.074707,-2.854248 -12.141602,1.974365l-2.309937,2.742432l1.89624,-1.19812c2.152222,-1.359741 4.273804,-1.802856 7.313232,-1.527466c3.009155,0.272583 3.029785,0.576172 0.063965,0.941284c-3.05896,0.376465 -6.556396,1.929688 -8.751221,3.886475c-0.86792,0.773804 -1.457397,1.432983 -1.309937,1.464966c9.899414,2.148193 11.225952,1.9375 16.744385,-2.659912c1.699219,-1.415527 3.438354,-2.728027 3.864868,-2.916626c0.915283,-0.405029 0.9375,-0.389648 -0.841797,-0.581543l-0.000122,0.000244zm-28.43103,1.519165c-0.969116,-3.638672 -2.849243,-6.937866 -5.077148,-8.909424c-1.839966,-1.628296 -1.772461,-2.046509 0.160767,-0.99585c2.678345,1.455688 4.687256,3.57666 5.530029,5.838135c0.62793,1.685303 0.768799,1.85437 0.829468,0.994629c0.040039,-0.569458 -0.01001,-1.831177 -0.108154,-2.803833c-0.597168,-5.825195 -3.179077,-8.14563 -9.319092,-8.37561c-1.541992,-0.057983 -3.337646,-0.389404 -4.087158,-0.755005l-1.336914,-0.651855l0.838135,2.89502c0.460815,1.592407 1.0802,3.864136 1.375854,5.048828c0.854858,3.423096 2.476318,5.091675 6.934692,7.135986c2.060059,0.94458 3.900513,1.917725 4.089966,2.16272c0.519897,0.671631 0.591675,0.00061 0.169678,-1.583618l-0.000122,-0.000122zm-0.696655,5.333496c-2.614868,-1.86792 -7.956787,-2.899902 -11.838257,-2.28772l-2.033325,0.320801l2.05957,-0.99231c2.496826,-1.202881 5.19043,-1.502441 7.912231,-0.879883l2.033936,0.46521l-1.78894,-1.387085c-2.673828,-2.072754 -5.461304,-2.990112 -7.83606,-2.579102c-1.595581,0.276245 -2.396606,0.756714 -4.298462,2.578125c-1.285522,1.231201 -2.390625,2.380615 -2.455811,2.554321c-0.065063,0.173462 -0.835571,0.65564 -1.71228,1.070923l-1.593872,0.754883l4.795044,2.108276c6.543457,2.877197 7.582642,2.941895 12.295288,0.765137c1.998779,-0.922974 3.998535,-1.734009 4.44397,-1.80188c0.740601,-0.113159 0.742188,-0.172119 0.016968,-0.690063l0,0.000366zm14.252808,-15.617065c0.042969,-0.952881 -0.153809,-2.95459 -0.436768,-4.44812c-0.282959,-1.493652 -0.551392,-3.573975 -0.596436,-4.623291l-0.081909,-1.907593l-0.742188,1.226685c-0.487793,0.806274 -1.826416,1.799561 -3.906494,2.898804c-1.740112,0.919922 -3.490112,1.958252 -3.888062,2.307983c-1.204834,1.05835 -2.090698,3.89502 -1.885986,6.040039c0.197144,2.066895 1.971558,7.071289 1.991211,5.615845c0.052979,-3.944458 0.152344,-4.521606 1.081543,-6.287109c0.540283,-1.026733 1.543213,-2.421631 2.228516,-3.10022l1.246582,-1.233032l-0.996338,2.057007c-1.701172,3.511597 -2.141602,8.370483 -1.068604,11.786621l0.360962,1.14917l0.379761,-1.012939c0.208862,-0.556885 1.292603,-1.949829 2.408203,-3.095093c2.481689,-2.547852 3.800903,-5.038818 3.905518,-7.375l0.000488,0.000244zm2.397583,33.694458c-0.175903,-0.881348 0.065918,-2.669067 0.672119,-4.957031c1.588501,-6.001465 0.304199,-8.558716 -5.520996,-10.992554l-3.308228,-1.382324l1.71106,1.450439c1.942017,1.645874 3.000244,3.537354 3.648071,6.519653c0.641235,2.952759 0.35791,3.063232 -0.878906,0.342896c-1.275513,-2.805542 -3.805298,-5.677124 -6.32959,-7.184937c-0.998169,-0.596313 -1.803711,-0.961304 -1.790039,-0.810913c0.915894,10.088257 1.514282,11.290771 7.553711,15.178589c1.859497,1.197144 3.63269,2.463135 3.940063,2.813843c0.660645,0.752075 0.652588,0.778076 0.302368,-0.977295l0.000366,-0.000366z"/>
    <path fill="#000000" d="m1541.468262,1439.656006c-2.678955,0.104614 -6.729126,2.154297 -8.975586,4.54187l-1.177002,1.250854l0.851074,-1.707031c1.031738,-2.069336 2.654785,-3.643433 4.767822,-4.624146l1.579102,-0.732788l-1.888672,0c-2.82251,-0.000244 -5.129639,0.819336 -6.485474,2.304077c-0.911011,0.997681 -1.193726,1.723877 -1.516968,3.896973c-0.218506,1.468872 -0.359741,2.791748 -0.313843,2.939575c0.045898,0.147949 -0.216064,0.859375 -0.581543,1.581421l-0.665161,1.312622l4.239502,-1.060547c5.7854,-1.447021 6.503784,-1.935547 8.498901,-5.779419c0.846313,-1.630249 1.75061,-3.187012 2.009521,-3.459595c0.430664,-0.453125 0.401367,-0.492676 -0.341309,-0.463623l-0.000366,-0.000244zm22.898926,-0.656006c-0.676392,-0.323486 -1.748779,-1.379639 -2.973511,-2.928589c-3.212402,-4.062988 -5.562256,-4.484741 -10.101563,-1.812988l-2.578003,1.517334l1.824585,-0.41687c2.070313,-0.473267 3.862793,-0.233643 6.177979,0.825806c2.292236,1.04895 2.224365,1.293457 -0.210571,0.758301c-2.511475,-0.551758 -5.694214,-0.299438 -7.963989,0.631836c-0.897461,0.368164 -1.543945,0.723389 -1.437012,0.789429c7.194214,4.435303 8.296509,4.637451 13.913452,2.550049c1.729614,-0.6427 3.462036,-1.193359 3.849854,-1.223633c0.83252,-0.064941 0.845947,-0.046021 -0.501221,-0.690674zm-22.792969,-6.68811c0.246338,-3.131836 -0.318359,-6.249146 -1.524902,-8.418335c-0.996216,-1.791504 -0.827148,-2.101807 0.40271,-0.739014c1.703979,1.888184 2.696777,4.114014 2.732788,6.127319c0.026978,1.500244 0.089966,1.672119 0.376709,1.012573c0.189575,-0.437012 0.500977,-1.443481 0.692383,-2.236328c1.145508,-4.749268 -0.242798,-7.291138 -5.01062,-9.174561c-1.197266,-0.473022 -2.518188,-1.231934 -3.006592,-1.727295l-0.871216,-0.883789l-0.143311,2.510498c-0.078003,1.380737 -0.221558,3.34021 -0.317261,4.354126c-0.276489,2.930786 0.536621,4.693359 3.478027,7.538208c1.359131,1.314453 2.537476,2.590576 2.618774,2.835693c0.222656,0.672852 0.46521,0.164673 0.57251,-1.199097zm-2.027222,4.003662c-1.539795,-2.194702 -5.456787,-4.488159 -8.680908,-5.082642l-1.688965,-0.311279l1.895752,-0.209717c2.29834,-0.254272 4.500854,0.256836 6.469971,1.501343l1.471558,0.930054l-1.023193,-1.58728c-1.529297,-2.372314 -3.468384,-3.867188 -5.450806,-4.202271c-1.332397,-0.225098 -2.095703,-0.069092 -4.09729,0.836792c-1.352905,0.612305 -2.541382,1.210449 -2.640869,1.329102c-0.099976,0.118774 -0.839233,0.284058 -1.644165,0.367798l-1.463623,0.1521l3.188477,2.988525c4.351196,4.078369 5.151123,4.41748 9.462891,4.011475c1.828735,-0.172119 3.627197,-0.255859 3.99646,-0.185791c0.614136,0.116333 0.631714,0.069946 0.20459,-0.538208l0.000122,0zm15.545654,-8.33667c0.297852,-0.737915 0.698242,-2.367432 0.889648,-3.621216c0.191528,-1.253784 0.557251,-2.96521 0.812622,-3.803345l0.464478,-1.523682l-0.92395,0.759399c-0.607544,0.499146 -1.936279,0.909546 -3.877808,1.197876c-1.62439,0.241455 -3.289185,0.573242 -3.699341,0.738037c-1.241699,0.498535 -2.725098,2.485107 -3.158813,4.229858c-0.417969,1.680908 -0.409424,6.11084 0.011963,4.970947c1.135498,-3.088989 1.373657,-3.515625 2.59436,-4.647217c0.709595,-0.658081 1.885864,-1.477783 2.613403,-1.821167l1.322876,-0.624634l-1.35437,1.342163c-2.312378,2.291748 -4.006226,5.99292 -4.109009,8.978394l-0.034058,1.004395l0.579712,-0.69165c0.318726,-0.380371 1.557617,-1.175903 2.753052,-1.767822c2.659302,-1.31665 4.388184,-2.911011 5.118286,-4.720215l-0.003052,-0.000122zm-7.456299,27.178467c0.105713,-0.74231 0.792358,-2.081787 1.903442,-3.714233c2.914063,-4.282104 2.612549,-6.650391 -1.296265,-10.180786l-2.219971,-2.005127l0.944336,1.615845c1.071655,1.833496 1.380005,3.615356 1.062622,6.141724c-0.314087,2.501221 -0.567627,2.509644 -0.786499,0.026001c-0.225952,-2.561401 -1.420166,-5.522339 -2.988403,-7.408936c-0.620239,-0.74585 -1.152832,-1.256348 -1.183716,-1.134277c-2.076538,8.192139 -1.939087,9.304321 1.735107,14.038208c1.131104,1.457642 2.175415,2.945557 2.320557,3.306396c0.311157,0.775146 0.297729,0.793091 0.508789,-0.685181l0,0.000366z" id="path37395"/>
    <path fill="#000000" id="path37531" d="m1547.416016,1404.925171c-1.372559,0.053955 -3.447998,1.103882 -4.599243,2.327393l-0.603027,0.640869l0.436035,-0.874634c0.528809,-1.060303 1.360474,-1.867065 2.443115,-2.369385l0.809204,-0.375488l-0.967773,-0.000122c-1.446289,-0.000122 -2.628418,0.419922 -3.323242,1.180664c-0.466797,0.51123 -0.611694,0.883301 -0.777222,1.996826c-0.111938,0.752686 -0.184326,1.430542 -0.160889,1.506348c0.022949,0.075073 -0.110718,0.440308 -0.297974,0.810181l-0.34082,0.672607l2.172241,-0.543335c2.9646,-0.741577 3.332642,-0.991821 4.355103,-2.961548c0.433594,-0.835327 0.896973,-1.633057 1.029663,-1.772583c0.220581,-0.2323 0.205688,-0.252441 -0.174927,-0.237671l-0.000244,-0.000122zm11.733765,-0.33606c-0.34668,-0.165894 -0.896118,-0.707031 -1.523682,-1.50061c-1.646118,-2.082031 -2.85022,-2.298096 -5.176147,-0.929077l-1.321045,0.777588l0.934937,-0.213623c1.060913,-0.242676 1.97937,-0.119873 3.165649,0.423096c1.174561,0.537476 1.139771,0.662842 -0.10791,0.388428c-1.286865,-0.282593 -2.917725,-0.15332 -4.080811,0.323853c-0.459839,0.188721 -0.791138,0.370728 -0.736206,0.404541c3.686279,2.272705 4.251099,2.376221 7.129395,1.306641c0.88623,-0.329224 1.773926,-0.61145 1.972656,-0.626953c0.426636,-0.033081 0.433472,-0.023071 -0.256836,-0.353882zm-11.679321,-3.427124c0.126221,-1.604858 -0.163208,-3.202148 -0.781494,-4.313721c-0.510498,-0.917847 -0.423828,-1.076904 0.206421,-0.37854c0.873169,0.967407 1.381836,2.108032 1.400269,3.139526c0.013916,0.768799 0.046021,0.857056 0.193115,0.519043c0.096924,-0.223999 0.256592,-0.739746 0.354736,-1.145874c0.586914,-2.433716 -0.124512,-3.736206 -2.567627,-4.701294c-0.613403,-0.24231 -1.290283,-0.631226 -1.540405,-0.88501l-0.446533,-0.452881l-0.073975,1.286377c-0.040039,0.70752 -0.113647,1.711548 -0.162598,2.231079c-0.141602,1.501831 0.274902,2.405029 1.782104,3.862671c0.696533,0.673462 1.300293,1.327515 1.341919,1.453125c0.114136,0.344727 0.238403,0.083984 0.293335,-0.614502l0.000732,0zm-1.038818,2.051636c-0.789063,-1.124756 -2.796143,-2.299805 -4.448242,-2.604492l-0.865356,-0.159546l0.971313,-0.107422c1.177612,-0.130249 2.306274,0.131592 3.315308,0.769287l0.754028,0.476563l-0.524414,-0.813354c-0.783569,-1.215576 -1.7771,-1.981567 -2.792969,-2.15332c-0.682739,-0.115234 -1.073853,-0.036011 -2.099487,0.428833c-0.693237,0.313843 -1.302246,0.620239 -1.353149,0.68103c-0.051025,0.060913 -0.430054,0.145508 -0.842529,0.188477l-0.75,0.078003l1.633911,1.53125c2.229614,2.089844 2.639526,2.263672 4.848877,2.055542c0.937012,-0.088013 1.858643,-0.131104 2.047729,-0.094971c0.314819,0.059937 0.32373,0.036011 0.104858,-0.275879l0.000122,0zm7.96582,-4.271973c0.152588,-0.37793 0.357666,-1.213135 0.455811,-1.855591c0.098022,-0.642334 0.285522,-1.519409 0.416504,-1.94873l0.237793,-0.780884l-0.473389,0.389282c-0.311279,0.255615 -0.992188,0.465942 -1.987061,0.61377c-0.832275,0.123657 -1.685425,0.293701 -1.895508,0.378052c-0.63623,0.255493 -1.396484,1.273438 -1.618652,2.16748c-0.214233,0.861328 -0.209717,3.131348 0.01001,2.547241c0.581787,-1.582764 0.703735,-1.801514 1.329346,-2.381348c0.363647,-0.337158 0.966309,-0.757202 1.339111,-0.933105l0.677734,-0.32019l-0.69397,0.687866c-1.184814,1.174316 -2.052734,3.070801 -2.105469,4.600586l-0.016968,0.514648l0.296997,-0.354492c0.16333,-0.194824 0.798218,-0.602417 1.410645,-0.905762c1.362671,-0.674683 2.248657,-1.491577 2.622681,-2.418701l-0.005615,-0.000122zm-3.820801,13.926514c0.054077,-0.380249 0.406006,-1.06665 0.975342,-1.903076c1.493164,-2.194214 1.338745,-3.407837 -0.664185,-5.216797l-1.137451,-1.027466l0.483765,0.828003c0.549194,0.939575 0.707153,1.852539 0.544556,3.147095c-0.161011,1.281616 -0.290894,1.285889 -0.403076,0.012939c-0.115845,-1.3125 -0.727661,-2.829834 -1.53125,-3.796509c-0.317871,-0.38208 -0.590698,-0.643677 -0.606567,-0.581177c-1.064087,4.197754 -0.993652,4.7677 0.889038,7.193359c0.579712,0.746948 1.114746,1.509399 1.189209,1.694336c0.159424,0.397095 0.152466,0.40625 0.26062,-0.351074l0,0.000366z"/>
    <path fill="#000000" d="m1446.50415,1429.014893c-1.372559,0.053955 -3.447998,1.103882 -4.599243,2.327393l-0.603027,0.640869l0.436035,-0.874634c0.528809,-1.060303 1.360474,-1.867065 2.443115,-2.369385l0.809204,-0.375488l-0.967773,-0.000122c-1.446289,-0.000122 -2.628418,0.419922 -3.323242,1.180664c-0.466797,0.51123 -0.611694,0.883301 -0.777222,1.996826c-0.111938,0.752686 -0.184326,1.430542 -0.160889,1.506348c0.022949,0.075073 -0.110718,0.440308 -0.297974,0.810181l-0.340942,0.672607l2.172363,-0.543335c2.9646,-0.741577 3.332642,-0.991821 4.355103,-2.961548c0.433594,-0.835327 0.896973,-1.633057 1.029663,-1.772583c0.220581,-0.2323 0.205688,-0.252441 -0.174927,-0.237671l-0.000244,-0.000122zm11.733643,-0.33606c-0.346558,-0.165894 -0.895996,-0.707031 -1.52356,-1.50061c-1.646118,-2.082031 -2.85022,-2.298096 -5.176147,-0.929077l-1.321045,0.777588l0.934937,-0.213623c1.060913,-0.242676 1.97937,-0.119873 3.165649,0.423096c1.174561,0.537476 1.139771,0.662842 -0.10791,0.388428c-1.286865,-0.282593 -2.917725,-0.15332 -4.080811,0.323853c-0.459839,0.188721 -0.791138,0.370728 -0.736206,0.404541c3.686279,2.272705 4.251099,2.376221 7.129395,1.306641c0.88623,-0.329224 1.773926,-0.61145 1.972656,-0.626953c0.426636,-0.033081 0.433472,-0.023071 -0.256958,-0.353882zm-11.679199,-3.427124c0.126099,-1.604858 -0.163208,-3.202148 -0.781494,-4.313721c-0.510498,-0.917847 -0.423828,-1.076904 0.206421,-0.37854c0.873169,0.967407 1.381836,2.108032 1.400269,3.139526c0.013916,0.768799 0.046021,0.857056 0.193115,0.519043c0.096924,-0.223999 0.256592,-0.739746 0.354736,-1.145874c0.586914,-2.433716 -0.124512,-3.736206 -2.567627,-4.701294c-0.613403,-0.24231 -1.290283,-0.631226 -1.540405,-0.88501l-0.446533,-0.452881l-0.073975,1.286377c-0.040039,0.70752 -0.113647,1.711548 -0.162598,2.231079c-0.141602,1.501831 0.274902,2.405029 1.782104,3.862671c0.696533,0.673462 1.300293,1.327515 1.341919,1.453125c0.114136,0.344727 0.238403,0.083984 0.293335,-0.614502l0.000732,0zm-1.038818,2.051636c-0.789063,-1.124756 -2.796143,-2.299805 -4.448242,-2.604614l-0.865356,-0.159424l0.971313,-0.107422c1.177612,-0.130249 2.306274,0.131592 3.315308,0.769287l0.754028,0.476563l-0.524414,-0.813354c-0.783569,-1.215576 -1.7771,-1.981567 -2.792969,-2.15332c-0.682739,-0.115234 -1.073853,-0.036011 -2.099487,0.428833c-0.693237,0.313843 -1.302246,0.620239 -1.353149,0.68103c-0.051025,0.060913 -0.430054,0.145508 -0.842529,0.188477l-0.75,0.078003l1.633911,1.53125c2.229614,2.089844 2.639404,2.263672 4.848877,2.055542c0.937012,-0.088013 1.858643,-0.131104 2.047729,-0.094971c0.314697,0.059937 0.32373,0.036011 0.104858,-0.275879l0.000122,0zm7.96582,-4.271973c0.152588,-0.37793 0.357666,-1.213135 0.455811,-1.855591c0.098022,-0.642334 0.285522,-1.519409 0.416504,-1.94873l0.237793,-0.780884l-0.473389,0.389282c-0.311279,0.255615 -0.992188,0.465942 -1.987061,0.61377c-0.832275,0.123657 -1.685425,0.293701 -1.895508,0.378052c-0.636353,0.255493 -1.396484,1.273438 -1.618652,2.16748c-0.214233,0.861328 -0.209717,3.131348 0.01001,2.547241c0.581787,-1.582764 0.703735,-1.801514 1.329346,-2.381348c0.363647,-0.337158 0.966309,-0.757202 1.339111,-0.933105l0.677734,-0.32019l-0.69397,0.687866c-1.184814,1.174316 -2.052734,3.070801 -2.105469,4.600586l-0.016968,0.514648l0.296997,-0.354492c0.16333,-0.194824 0.798218,-0.602417 1.410645,-0.905762c1.362671,-0.674683 2.248657,-1.491577 2.622681,-2.418701l-0.005615,-0.000122zm-3.820801,13.926514c0.054077,-0.380249 0.406006,-1.06665 0.975342,-1.903076c1.493164,-2.194214 1.338745,-3.407837 -0.664185,-5.216797l-1.137451,-1.027466l0.483765,0.828003c0.549194,0.939575 0.707153,1.852539 0.544556,3.147095c-0.161011,1.281616 -0.290894,1.285889 -0.403076,0.012939c-0.115845,-1.3125 -0.727661,-2.829834 -1.53125,-3.796509c-0.317871,-0.38208 -0.590698,-0.643677 -0.606567,-0.581177c-1.064087,4.197754 -0.993652,4.7677 0.889038,7.193359c0.579712,0.746948 1.114746,1.509399 1.189209,1.694336c0.159424,0.397095 0.152466,0.40625 0.26062,-0.351074l0,0.000366z" id="path37533"/>
    <path fill="#000000" id="path37535" d="m1640.474609,1453.157227c-1.372559,0.053955 -3.447998,1.103882 -4.599243,2.327393l-0.603027,0.640869l0.436035,-0.874634c0.528809,-1.060303 1.360474,-1.867065 2.443115,-2.369385l0.809204,-0.375488l-0.967773,-0.000122c-1.446289,-0.000122 -2.628418,0.419922 -3.323242,1.180664c-0.466797,0.51123 -0.611694,0.883301 -0.777222,1.996826c-0.111938,0.752686 -0.184326,1.430542 -0.160889,1.506348c0.022949,0.075073 -0.110718,0.440308 -0.297974,0.810181l-0.340942,0.672607l2.172363,-0.543335c2.9646,-0.741577 3.332642,-0.991821 4.355103,-2.961548c0.433594,-0.835327 0.896973,-1.633057 1.029663,-1.772583c0.220581,-0.2323 0.205688,-0.252441 -0.174927,-0.237671l-0.000244,-0.000122zm11.733643,-0.33606c-0.346558,-0.165894 -0.895996,-0.707031 -1.52356,-1.50061c-1.646118,-2.082031 -2.85022,-2.298096 -5.176147,-0.929077l-1.321045,0.777588l0.934937,-0.213623c1.060913,-0.242554 1.97937,-0.119873 3.165649,0.423096c1.174561,0.537476 1.139771,0.662842 -0.10791,0.38855c-1.286865,-0.282715 -2.917725,-0.153442 -4.080811,0.32373c-0.459839,0.188721 -0.791138,0.370728 -0.736206,0.404541c3.686279,2.272705 4.251099,2.376221 7.129395,1.306641c0.88623,-0.329224 1.773926,-0.61145 1.972656,-0.626953c0.426636,-0.032959 0.433472,-0.023071 -0.256958,-0.353882zm-11.679199,-3.427124c0.126099,-1.604858 -0.163208,-3.202148 -0.781494,-4.313721c-0.510498,-0.917847 -0.423828,-1.076904 0.206421,-0.37854c0.873169,0.967407 1.381836,2.108032 1.400269,3.139526c0.013916,0.768799 0.046021,0.857056 0.193115,0.519043c0.096924,-0.223999 0.256592,-0.739746 0.354736,-1.145874c0.586914,-2.433716 -0.124512,-3.736206 -2.567627,-4.701294c-0.613403,-0.24231 -1.290283,-0.631226 -1.540405,-0.88501l-0.446533,-0.452881l-0.073975,1.286377c-0.040039,0.70752 -0.113647,1.711548 -0.162598,2.231079c-0.141602,1.501831 0.274902,2.405029 1.782104,3.862671c0.696533,0.673462 1.300293,1.327515 1.341919,1.453125c0.114136,0.344727 0.238403,0.083984 0.293335,-0.614502l0.000732,0zm-1.038818,2.051636c-0.789063,-1.124756 -2.796143,-2.299805 -4.448242,-2.604492l-0.865356,-0.159546l0.971313,-0.107422c1.177612,-0.130249 2.306274,0.131592 3.315308,0.769287l0.754028,0.476685l-0.524414,-0.813477c-0.783569,-1.215576 -1.7771,-1.981567 -2.792969,-2.15332c-0.682739,-0.115234 -1.073853,-0.036011 -2.099487,0.428833c-0.693237,0.313843 -1.302246,0.620361 -1.353149,0.68103c-0.051025,0.060913 -0.430054,0.14563 -0.842529,0.188477l-0.75,0.078003l1.633911,1.53125c2.229614,2.089844 2.639404,2.263672 4.848877,2.055542c0.937012,-0.088013 1.858643,-0.131104 2.047729,-0.094971c0.314697,0.059937 0.32373,0.036011 0.104858,-0.275879l0.000122,0zm7.96582,-4.271973c0.152588,-0.37793 0.357666,-1.213135 0.455811,-1.855591c0.098022,-0.642334 0.285522,-1.519409 0.416504,-1.94873l0.237793,-0.780884l-0.473389,0.389282c-0.311279,0.255615 -0.992188,0.465942 -1.987061,0.61377c-0.832275,0.123657 -1.685425,0.293701 -1.895508,0.378052c-0.636353,0.255493 -1.396484,1.273438 -1.618652,2.16748c-0.214233,0.861328 -0.209717,3.131348 0.01001,2.547241c0.581787,-1.582764 0.703735,-1.801514 1.329346,-2.381348c0.363647,-0.337158 0.966309,-0.757202 1.339111,-0.933105l0.677734,-0.32019l-0.69397,0.687866c-1.184814,1.174316 -2.052734,3.070801 -2.105469,4.600586l-0.016968,0.514648l0.296997,-0.354492c0.16333,-0.194824 0.798218,-0.602417 1.410645,-0.905762c1.362671,-0.674683 2.248657,-1.491577 2.622681,-2.418701l-0.005615,-0.000122zm-3.820801,13.926514c0.054077,-0.380249 0.406006,-1.06665 0.975342,-1.903076c1.493164,-2.194214 1.338745,-3.407837 -0.664185,-5.216797l-1.137451,-1.027466l0.483765,0.828003c0.549194,0.939575 0.707153,1.852539 0.544556,3.147095c-0.161011,1.281616 -0.290894,1.286011 -0.403076,0.012939c-0.115845,-1.3125 -0.727661,-2.829834 -1.53125,-3.796509c-0.317871,-0.38208 -0.590698,-0.643677 -0.606567,-0.581177c-1.064087,4.197754 -0.993652,4.7677 0.889038,7.193359c0.579712,0.746948 1.114746,1.509399 1.189209,1.694336c0.159424,0.397095 0.152466,0.40625 0.26062,-0.351074l0,0.000366z"/>
   </g>
   <rect opacity="0.937743" fill="#000000" y="642.45599" x="197.0428" height="24.161131" width="343.57831" id="rect37397"/>
   <path fill="#000000" id="path37401" d="m194.421799,643.128174l-1.21875,6.40625l-6.71875,-0.6875l4.4375,4.90625l-4.71875,4.65625l6.75,-0.28125l0.8125,6.4375l4,-5.25l5.75,3.40625l-1.78125,-6.25l6.375,-2.21875l-6.21875,-2.5625l2.15625,-6.15625l-5.96875,3.0625l-3.65625,-5.46875zm19.71875,0.875l-1.21875,6.375l-6.75,-0.65625l4.46875,4.90625l-4.75,4.65625l6.75,-0.28125l0.84375,6.4375l3.96875,-5.25l5.78125,3.40625l-1.8125,-6.28125l6.375,-2.1875l-6.21875,-2.5625l2.1875,-6.1875l-5.96875,3.09375l-3.65625,-5.46875zm19.6875,0l-1.21875,6.375l-6.71875,-0.65625l4.4375,4.90625l-4.75,4.65625l6.78125,-0.28125l0.8125,6.4375l4,-5.25l5.75,3.40625l-1.78125,-6.28125l6.375,-2.1875l-6.21875,-2.5625l2.15625,-6.1875l-5.96875,3.09375l-3.65625,-5.46875zm20.21875,0l-1.21875,6.375l-6.75,-0.65625l4.4375,4.90625l-4.71875,4.65625l6.75,-0.28125l0.8125,6.4375l4.000015,-5.25l5.78125,3.40625l-1.8125,-6.28125l6.375,-2.1875l-6.21875,-2.5625l2.1875,-6.1875l-5.96875,3.09375l-3.656265,-5.46875zm42.406265,0l-1.21875,6.375l-6.71875,-0.65625l4.4375,4.90625l-4.75,4.65625l6.78125,-0.28125l0.8125,6.4375l4,-5.25l5.75,3.40625l-1.78125,-6.28125l6.375,-2.1875l-6.21875,-2.5625l2.15625,-6.1875l-5.96875,3.09375l-3.65625,-5.46875zm20.21875,0l-1.21875,6.375l-6.75,-0.65625l4.46875,4.90625l-4.75,4.65625l6.75,-0.28125l0.84375,6.4375l3.96875,-5.25l5.78125,3.40625l-1.8125,-6.28125l6.375,-2.1875l-6.21875,-2.5625l2.1875,-6.1875l-5.96875,3.09375l-3.65625,-5.46875zm122.21875,0l-1.21875,6.375l-6.71875,-0.65625l4.4375,4.90625l-4.75,4.65625l6.78125,-0.28125l0.8125,6.4375l4,-5.25l5.75,3.40625l-1.78125,-6.28125l6.34375,-2.1875l-6.21875,-2.5625l2.1875,-6.1875l-5.96875,3.09375l-3.65625,-5.46875zm-164.15625,0.5l-1.21875,6.375l-6.71875,-0.65625l4.4375,4.90625l-4.75,4.65625l6.78125,-0.28125l0.8125,6.4375l4,-5.25l5.75,3.40625l-1.78125,-6.28125l6.375,-2.1875l-6.21875,-2.5625l2.15625,-6.15625l-5.96875,3.0625l-3.65625,-5.46875zm61.625,0l-1.21875,6.375l-6.71875,-0.65625l4.4375,4.90625l-4.75,4.65625l6.78125,-0.28125l0.8125,6.4375l4,-5.25l5.75,3.40625l-1.78125,-6.28125l6.34375,-2.1875l-6.21875,-2.5625l2.1875,-6.15625l-5.96875,3.0625l-3.65625,-5.46875zm19.6875,0l-1.21875,6.375l-6.71875,-0.65625l4.4375,4.90625l-4.71875,4.65625l6.75,-0.28125l0.8125,6.4375l4,-5.25l5.75,3.40625l-1.78125,-6.28125l6.375,-2.1875l-6.21875,-2.5625l2.15625,-6.15625l-5.96875,3.0625l-3.65625,-5.46875zm20.21875,0l-1.21875,6.375l-6.75,-0.65625l4.46875,4.90625l-4.75,4.65625l6.75,-0.28125l0.84375,6.4375l3.96875,-5.25l5.78125,3.40625l-1.78125,-6.28125l6.34375,-2.1875l-6.21875,-2.5625l2.1875,-6.15625l-5.96875,3.0625l-3.65625,-5.46875zm42.4375,0l-1.21875,6.375l-6.75,-0.65625l4.4375,4.90625l-4.71875,4.65625l6.75,-0.28125l0.8125,6.4375l4,-5.25l5.75,3.40625l-1.78125,-6.28125l6.375,-2.1875l-6.21875,-2.5625l2.1875,-6.15625l-5.96875,3.0625l-3.65625,-5.46875zm39.875,0l-1.21875,6.375l-6.71875,-0.65625l4.4375,4.90625l-4.71875,4.65625l6.75,-0.28125l0.8125,6.4375l4,-5.25l5.75,3.40625l-1.78125,-6.28125l6.375,-2.1875l-6.21875,-2.5625l2.15625,-6.15625l-5.96875,3.0625l-3.65625,-5.46875zm19.71875,0l-1.21875,6.375l-6.75,-0.65625l4.4375,4.90625l-4.71875,4.65625l6.75,-0.28125l0.84375,6.4375l3.96875,-5.25l5.78125,3.40625l-1.8125,-6.28125l6.375,-2.1875l-6.21875,-2.5625l2.1875,-6.15625l-5.96875,3.0625l-3.65625,-5.46875zm20.1875,0l-1.21875,6.375l-6.71875,-0.65625l4.4375,4.90625l-4.75,4.65625l6.78125,-0.28125l0.8125,6.4375l4,-5.25l5.75,3.40625l-1.78125,-6.28125l6.375,-2.1875l-6.21875,-2.5625l2.15625,-6.15625l-5.96875,3.0625l-3.65625,-5.46875zm49,0.46875l-4.6875,4.8125l-5.21875,-4l0.90625,6.4375l-6.59375,1.53125l5.78125,3.21875l-3.03125,5.90625l6.34375,-2.40625l2.8125,5.84375l2.125,-6.25l6.53125,1.375l-3.6875,-5.375l5.3125,-4.125l-6.6875,-0.4375l0.093689,-6.53125l0.000061,0zm-150.5,0.031189l-1.21875,6.40625l-6.75,-0.6875l4.4375,4.90625l-4.71875,4.65625l6.75,-0.28125l0.8125,6.4375l4,-5.25l5.78125,3.40625l-1.8125,-6.25l6.375,-2.21875l-6.21875,-2.5625l2.1875,-6.15625l-5.96875,3.0625l-3.65625,-5.46875zm122.21875,0l-1.21875,6.40625l-6.75,-0.6875l4.46875,4.90625l-4.75,4.65625l6.75,-0.28125l0.84375,6.4375l3.96875,-5.25l5.78125,3.40625l-1.78125,-6.25l6.34375,-2.21875l-6.21875,-2.5625l2.1875,-6.15625l-5.96875,3.0625l-3.65625,-5.46875z"/>
   <path fill="#000000" id="path37439" d="m368.578064,383.065674c-0.104767,0.145111 -0.207611,0.82486 -0.46875,2.1875c-0.262115,1.368286 -1.476593,3.766205 -3.375,6.625c-4.979614,7.498688 -4.865051,11.984283 0.53125,19.25l3.0625,4.125l-1.1875,-3.1875c-1.359894,-3.609192 -1.577118,-6.991547 -0.75,-11.65625c0.818909,-4.618408 1.201385,-4.582947 1.1875,0.093689c-0.014008,4.823395 1.368744,10.550446 3.46875,14.34375c0.830505,1.499908 1.561584,2.535095 1.625,2.3125c4.259583,-14.946808 4.189087,-17.026398 -0.6875,-26.5c-1.501617,-2.916992 -2.862946,-5.894531 -3.03125,-6.59375c-0.180756,-0.750549 -0.270264,-1.145111 -0.375,-1l0,0.000061zm-2.15625,38.875c-0.020111,-0.007019 -0.056793,0.011108 -0.0625,0.031189c-3.085999,10.828918 -3.033112,12.355164 0.5,19.21875c1.087891,2.113403 2.065491,4.243408 2.1875,4.75c0.261902,1.087616 0.246582,1.099396 0.625,-0.875c0.189789,-0.991302 1.093353,-2.710052 2.46875,-4.78125c3.607697,-5.4328 3.503357,-8.673492 -0.40625,-13.9375l-2.21875,-3l0.875,2.3125c0.985199,2.614899 1.130554,5.057922 0.53125,8.4375c-0.593201,3.346008 -0.853851,3.325409 -0.84375,-0.0625c0.01001,-3.494598 -1.009857,-7.626801 -2.53125,-10.375c-0.526489,-0.950867 -0.984558,-1.667023 -1.125,-1.71875l0,0.000061zm137.84375,17.5c-0.148438,0.100037 -0.503113,0.68634 -1.21875,1.875c-0.718597,1.193695 -2.668701,3.003845 -5.4375,5.03125c-7.262604,5.317902 -8.680511,9.56781 -6.125,18.25l1.4375,4.9375l-0.031189,-3.40625c-0.030029,-3.856689 0.925476,-7.095306 3.3125,-11.1875c2.363281,-4.051514 2.721832,-3.915558 1.09375,0.46875c-1.679108,4.52179 -2.348511,10.402405 -1.6875,14.6875c0.261383,1.694397 0.582336,2.937103 0.71875,2.75c9.158783,-12.556519 9.836639,-14.550201 8.53125,-25.125c-0.401917,-3.256012 -0.677155,-6.504364 -0.59375,-7.21875c0.089478,-0.766754 0.148407,-1.162537 0,-1.0625l-0.000061,0zm-270.65625,1.8125c-0.16214,-0.092194 -0.100006,0.5578 0.093689,2.28125c0.155701,1.384491 -0.285492,4.019104 -1.25,7.3125c-2.529892,8.638611 -1.090744,12.881744 6.21875,18.21875l4.15625,3.03125l-2.09375,-2.6875c-2.369598,-3.043091 -3.593094,-6.206146 -4.1875,-10.90625c-0.588593,-4.65329 -0.218246,-4.751465 1.15625,-0.28125c1.417709,4.610504 4.462662,9.688293 7.59375,12.6875c1.238113,1.185883 2.255508,1.950256 2.25,1.71875c-0.367889,-15.537506 -1.062836,-17.525299 -8.53125,-25.125c-2.2995,-2.339996 -4.475449,-4.757202 -4.84375,-5.375c-0.296509,-0.497284 -0.46521,-0.819672 -0.5625,-0.875l0.000061,0zm255.15625,36.40625c-6.110107,9.458191 -6.534241,10.935547 -5.15625,18.53125c0.424286,2.338806 0.749847,4.667389 0.71875,5.1875c-0.067017,1.116791 -0.093689,1.121948 0.84375,-0.65625c0.470184,-0.893005 1.830292,-2.263641 3.75,-3.84375c5.035095,-4.144501 5.891998,-7.293457 3.6875,-13.46875l-1.25,-3.5l0.15625,2.46875c0.179596,2.788605 -0.378815,5.160645 -1.9375,8.21875c-1.543304,3.027405 -1.809998,2.925293 -0.8125,-0.3125c1.028595,-3.339813 1.278809,-7.583862 0.625,-10.65625c-0.258698,-1.214905 -0.533997,-2.109558 -0.625,-1.96875zm-244.34375,1.15625c-0.021301,-0.002014 -0.031311,0.010284 -0.031204,0.031189c0.037994,11.26001 0.483154,12.729248 5.78125,18.34375c1.631393,1.728821 3.179794,3.515869 3.4375,3.96875c0.553299,0.972321 0.527847,1.001892 0.34375,-1c-0.093002,-1.005005 0.284256,-2.909851 1.03125,-5.28125c1.959396,-6.220184 0.966095,-9.308044 -4.25,-13.28125l-2.9375,-2.28125l1.46875,1.96875c1.671799,2.239105 2.482147,4.55545 2.84375,7.96875c0.358002,3.379211 0.086395,3.445313 -0.84375,0.1875c-0.959595,-3.360291 -3.057343,-7.062744 -5.28125,-9.28125c-0.769562,-0.767456 -1.413193,-1.332977 -1.5625,-1.34375l-0.000046,0.000061z"/>
   <path fill="#000000" stroke-width="3.155635" id="path37487" d="m370.389404,466.337646l-1.537598,-6.107788l-1.524811,6.138794c-2.83551,12.594604 -6.389709,25.559906 -11.375,37.562408c-7.958588,19.160919 -19.215088,36.360504 -36.437592,42.812592c-14.513885,5.4375 -28.718109,-0.740295 -39.906219,-9.656311c-7.433594,-5.923889 -13.774292,-13.163391 -19.218781,-20.1875l-2.593689,-3.343811l-0.218719,4.218811c-0.5755,10.278992 -1.7341,21.499329 -4.281281,32.125c-1.894302,7.901917 -4.432022,15.459839 -8.375,21.906189c-3.94342,6.447632 -9.564301,11.937805 -16.843719,14.156311c-8.972397,2.734619 -17.992493,4.803406 -28.343781,2.156311c-3.513306,-0.898621 -7.228409,-2.544312 -11.093811,-4.562622l-4.812393,-2.5l2.718704,4.687622c2.774292,4.816223 5.288895,9.470093 7.3125,13.937378c4.04129,8.92041 6.543396,17.887939 7.875,28.062622l0.156189,1.375l1.406311,0l330.6875,0.656189l1.281189,0l0.25,-1.281189c0.656616,-3.353699 1.59668,-7.247314 3.375,-12.406311c2.435608,-7.065308 6.75293,-16.479004 12.468811,-27.25l2.593811,-4.875l-4.781311,2.781311c-1.594299,0.928772 -3.027893,1.894897 -4.468689,2.562378c-10.608093,4.916321 -22.948425,5.980103 -35.500031,0.281311c-14.513702,-6.589478 -22.104584,-21.546204 -25.968781,-37.25c-2.8815,-11.710999 -3.819397,-24.112671 -4.406219,-36.093689l-0.25,-4.5l-2.625,3.656189c-5.001282,6.935486 -10.578888,14.064636 -17.25,20.3125c-5.030579,4.711792 -10.708099,9.085632 -16.718781,11.6875c-6.010712,2.601929 -12.309998,3.474792 -18.906219,1.281189c-18.690186,-6.215271 -31.279175,-23.869568 -40.093781,-43.593689c-5.536896,-12.390198 -9.459595,-25.785797 -12.593811,-38.75l0,0.000305zm-1.468719,6.531311c2.917725,11.261383 6.357605,22.723083 11.1875,33.531189c8.984222,20.103516 21.992706,38.638184 41.968811,45.281189c7.411713,2.464844 14.631104,1.449585 21.156189,-1.375c6.525116,-2.824463 12.444611,-7.429077 17.625,-12.281189c5.826111,-5.456482 10.676117,-11.499084 15.125,-17.468811c0.61261,10.774536 1.557007,21.840515 4.1875,32.531311c3.982422,16.184021 11.951019,32.216125 27.718719,39.375c13.401367,6.084595 26.846985,4.960083 38.156311,-0.281311c0.067993,-0.031006 0.120483,-0.062012 0.1875,-0.093994c-4.493713,8.796509 -8.208435,16.774292 -10.343811,22.968689c-1.624512,4.712891 -2.523987,8.368103 -3.187378,11.562622l-328.062622,-0.656311c-1.410294,-9.877014 -3.924698,-18.80542 -7.906189,-27.593689c-1.466202,-3.236816 -3.3992,-6.588013 -5.25,-9.937622c2.503693,1.132629 4.997787,2.118042 7.468796,2.75c11.166702,2.855713 20.921097,0.557922 30.031204,-2.218689c8.231995,-2.508911 14.40239,-8.62738 18.625,-15.531311c4.194595,-6.85791 6.84259,-14.694458 8.781189,-22.781189c2.304108,-9.611389 3.328003,-19.531616 3.968811,-28.875c5.00589,6.202698 10.609802,12.464722 17.281189,17.781189c11.655304,9.28833 27.114807,16.107605 43,10.156311c18.514404,-6.936096 30.114014,-25.049622 38.218811,-44.5625c4.322205,-10.405792 7.438995,-21.419678 10.0625,-32.281189l-0.000031,0.000305z"/>
  </g>
 </g>
</svg>