<?xml version="1.0"?><svg width="744.09448819" height="1052.3622047" xmlns="http://www.w3.org/2000/svg">
 <title>Navy Chevron</title>

 <metadata id="metadata7">image/svg+xml</metadata>
 <g>
  <title>Layer 1</title>
  <g id="layer1">
   <rect stroke-width="0" id="rect4230" width="716.89587" height="796.33026" x="13.901027" y="250.0743" fill-rule="nonzero" fill="#020256"/>
   <path id="path4011" d="m12.49464,768.237488l75.664333,75.387573l82.242943,-75.607483l80.078629,77.64502l82.242905,-75.460144l82.242889,75.979614l82.24292,-77.509827l82.24295,78.552673l80.078613,-76.746826l82.24292,75.184509" stroke-miterlimit="11.2" stroke-width="18.314093" stroke="#ffffff" fill="none"/>
   <path d="m12.49464,643.06488l75.664333,75.387634l82.242943,-75.607544l80.078629,77.64502l82.242905,-75.460144l82.242889,75.979614l82.24292,-77.509827l82.24295,78.552673l80.078613,-76.746826l82.24292,75.184509" id="path4065" stroke-miterlimit="11.2" stroke-width="18.314093" stroke="#ffffff" fill="none"/>
   <path d="m12.49464,704.625183l75.664333,75.387634l82.242943,-75.607544l80.078629,77.64502l82.242905,-75.460144l82.242889,75.979614l82.24292,-77.509827l82.24295,78.552673l80.078613,-76.746826l82.24292,75.184509" id="path4069" stroke-miterlimit="11.2" stroke-width="18.314093" stroke="#ffffff" fill="none"/>
   <path d="m12.49464,960.718994l75.664333,75.387573l82.242943,-75.607483l80.078629,77.644958l82.242905,-75.460083l82.242889,75.979614l82.24292,-77.509827l82.24295,78.552673l80.078613,-76.746826l82.24292,75.184448" id="path4188" stroke-miterlimit="11.2" stroke-width="18.314093" stroke="#ffffff" fill="none"/>
   <path id="path4190" d="m12.49464,835.546387l75.664333,75.387634l82.242943,-75.607544l80.078629,77.64502l82.242905,-75.460144l82.242889,75.979614l82.24292,-77.509827l82.24295,78.552673l80.078613,-76.746826l82.24292,75.184509" stroke-miterlimit="11.2" stroke-width="18.314093" stroke="#ffffff" fill="none"/>
   <path id="path4192" d="m12.49464,897.106689l75.664333,75.387634l82.242943,-75.607544l80.078629,77.64502l82.242905,-75.460144l82.242889,75.979614l82.24292,-77.509827l82.24295,78.552673l80.078613,-76.746826l82.24292,75.184509" stroke-miterlimit="11.2" stroke-width="18.314093" stroke="#ffffff" fill="none"/>
   <path d="m8.51331,391.001221l75.664332,75.387604l82.24295,-75.607544l80.078613,77.64505l82.24292,-75.460144l82.242889,75.979614l82.24295,-77.509827l82.24292,78.552673l80.078613,-76.746826l82.24292,75.184509" id="path4218" stroke-miterlimit="11.2" stroke-width="18.314093" stroke="#ffffff" fill="none"/>
   <path id="path4220" d="m8.51331,265.828613l75.664332,75.387604l82.24295,-75.607513l80.078613,77.64502l82.24292,-75.460144l82.242889,75.979645l82.24295,-77.509888l82.24292,78.552704l80.078613,-76.746826l82.24292,75.184509" stroke-miterlimit="11.2" stroke-width="18.314093" stroke="#ffffff" fill="none"/>
   <path id="path4222" d="m8.51331,327.388885l75.664332,75.387604l82.24295,-75.607513l80.078613,77.64505l82.24292,-75.460175l82.242889,75.979614l82.24295,-77.509827l82.24292,78.552704l80.078613,-76.746857l82.24292,75.18454" stroke-miterlimit="11.2" stroke-width="18.314093" stroke="#ffffff" fill="none"/>
   <path id="path4224" d="m8.51331,583.482727l75.664332,75.387573l82.24295,-75.607483l80.078613,77.645081l82.24292,-75.460205l82.242889,75.979614l82.24295,-77.509827l82.24292,78.552612l80.078613,-76.746765l82.24292,75.18457" stroke-miterlimit="11.2" stroke-width="18.314093" stroke="#ffffff" fill="none"/>
   <path d="m8.51331,458.31015l75.664332,75.387604l82.24295,-75.607513l80.078613,77.64505l82.24292,-75.460175l82.242889,75.979645l82.24295,-77.509888l82.24292,78.552734l80.078613,-76.746887l82.24292,75.184509" id="path4226" stroke-miterlimit="11.2" stroke-width="18.314093" stroke="#ffffff" fill="none"/>
   <path d="m8.51331,519.870422l75.664332,75.387634l82.24295,-75.607544l80.078613,77.64502l82.24292,-75.460144l82.242889,75.979614l82.24295,-77.509827l82.24292,78.552673l80.078613,-76.746826l82.24292,75.184509" id="path4228" stroke-miterlimit="11.2" stroke-width="18.314093" stroke="#ffffff" fill="none"/>
  </g>
 </g>
</svg>