<?xml version="1.0" encoding="UTF-8" standalone="no"?>
<!-- Created with Inkscape (http://www.inkscape.org/) -->

<svg
   xmlns:dc="http://purl.org/dc/elements/1.1/"
   xmlns:cc="http://creativecommons.org/ns#"
   xmlns:rdf="http://www.w3.org/1999/02/22-rdf-syntax-ns#"
   xmlns:svg="http://www.w3.org/2000/svg"
   xmlns="http://www.w3.org/2000/svg"
   xmlns:sodipodi="http://sodipodi.sourceforge.net/DTD/sodipodi-0.dtd"
   xmlns:inkscape="http://www.inkscape.org/namespaces/inkscape"
   width="650"
   height="310.22726"
   id="svg2"
   version="1.1"
   inkscape:version="0.48.2 r9819"
   sodipodi:docname="choose_mode.svg">
  <defs
     id="defs4" />
  <sodipodi:namedview
     id="base"
     pagecolor="#ffffff"
     bordercolor="#666666"
     borderopacity="1.0"
     inkscape:pageopacity="0.0"
     inkscape:pageshadow="2"
     inkscape:zoom="0.87999998"
     inkscape:cx="-63.472956"
     inkscape:cy="174.88382"
     inkscape:document-units="px"
     inkscape:current-layer="layer1"
     showgrid="false"
     inkscape:window-width="2205"
     inkscape:window-height="1199"
     inkscape:window-x="323"
     inkscape:window-y="90"
     inkscape:window-maximized="0"
     fit-margin-top="0"
     fit-margin-left="0"
     fit-margin-right="0"
     fit-margin-bottom="0">
    <inkscape:grid
       type="xygrid"
       id="grid2987"
       empspacing="5"
       visible="true"
       enabled="true"
       snapvisiblegridlinesonly="true" />
  </sodipodi:namedview>
  <metadata
     id="metadata7">
    <rdf:RDF>
      <cc:Work
         rdf:about="">
        <dc:format>image/svg+xml</dc:format>
        <dc:type
           rdf:resource="http://purl.org/dc/dcmitype/StillImage" />
        <dc:title />
      </cc:Work>
    </rdf:RDF>
  </metadata>
  <g
     inkscape:label="Layer 1"
     inkscape:groupmode="layer"
     id="layer1"
     transform="translate(-68.181816,-256.90762)">
    <rect
       style="opacity:0;fill:#333333;fill-rule:evenodd;stroke:#000000;stroke-width:1px;stroke-linecap:butt;stroke-linejoin:miter;stroke-opacity:1"
       id="rect2985"
       width="597.14288"
       height="282.85715"
       x="82.85714"
       y="329.50504" />
    <rect
       style="opacity:0;fill:#333333"
       id="rect2989"
       width="480"
       height="230"
       x="130"
       y="212.36218" />
    <rect
       style="opacity:0;fill:#333333"
       id="rect2991"
       width="510"
       height="270"
       x="130"
       y="172.36218" />
    <rect
       style="opacity:0;fill:#333333"
       id="rect2993"
       width="81.818184"
       height="23.863636"
       x="186.36363"
       y="268.27127" />
    <rect
       style="fill:#333333"
       id="rect3767"
       width="653.40912"
       height="310.22726"
       x="68.181816"
       y="256.90762"
       ry="42.045456" />
    <g
       id="draw">
      <rect
         transform="scale(1,-1)"
         ry="39.581253"
         y="-557.56061"
         x="418.22003"
         height="292.04544"
         width="287.78552"
         id="rect3767-1-5"
         style="fill:#ff9955" />
      <g
         transform="matrix(0.4693499,0,0,0.47001445,450.39778,288.41619)"
         id="g3873"
         style="fill:#803300">
        <path
           style="fill:#803300"
           inkscape:connector-curvature="0"
           d="m 69.075,339.05 c -37.85,37.2 -5.875,75.4 -56.175,132.025 -22.7,25.55 93.45,17.75 151,-38.825 24.4,-23.975 17.525,-58.95 -8.65,-84.7 -26.175,-25.725 -61.775,-32.475 -86.175,-8.5 z M 488.525,16.45 C 469.1,-2.625 254.05,169.7 190.025,232.625 158.25,263.85 147.65,280.6 137.9,293.125 c -4.225,5.45 1.375,7.125 3.875,8.425 12.575,6.4 21.375,12.35 32.775,23.55 11.4,11.175 17.475,19.825 23.975,32.2 1.3,2.475 3.025,7.975 8.55,3.8 12.75,-9.575 29.775,-20 61.525,-51.225 C 332.625,246.95 507.9,35.55 488.525,16.45 z"
           id="path3865" />
      </g>
    </g>
    <g
       id="describe">
      <rect
         transform="scale(1,-1)"
         ry="39.581253"
         y="-557.80865"
         x="80.211121"
         height="292.04544"
         width="285.37494"
         id="rect3767-1"
         style="fill:#80b3ff;stroke:#fcff15;stroke-width:0;stroke-miterlimit:4;stroke-opacity:1;stroke-dasharray:none" />
      <g
         transform="matrix(0.36827705,0,0,0.36910306,111.01163,316.98734)"
         id="g3977"
         style="fill:#003380">
        <path
           style="fill:#003380"
           inkscape:connector-curvature="0"
           d="m 256,448 0,64 352,0 0,-64 -352,0 z m 0,-128 0,64 352,0 0,-64 -352,0 z m 0,-192 0,64 352,0 0,-64 -352,0 z m 0,-128 0,64 352,0 0,-64 -352,0 z M 0,320 0,512 192,512 192,320 0,320 z M 0,0 0,192 192,192 192,0 0,0 z"
           id="path3969" />
      </g>
    </g>
  </g>
</svg>
